<svg xmlns="http://www.w3.org/2000/svg" xmlns:xlink="http://www.w3.org/1999/xlink" width="126" height="141" viewBox="0 0 126 141">
    <defs>
        <path id="a" d="M57.333.787C26.151.787.874 26.065.874 57.247c0 31.18 25.277 56.457 56.46 56.457 31.18 0 56.457-25.277 56.457-56.458 0-31.18-25.278-56.459-56.458-56.459z"/>
        <linearGradient id="b" x1="35.479%" x2="76.117%" y1="74.957%" y2="5.112%">
            <stop offset="0%" stop-color="#2A1AEB"/>
            <stop offset="100%" stop-color="#5041F2"/>
        </linearGradient>
        <path id="d" d="M0 .504h85.294v60.813H0z"/>
        <path id="f" d="M0 141h125.945V.788H0z"/>
    </defs>
    <g fill="none" fill-rule="evenodd">
        <g transform="translate(9)">
            <mask id="c" fill="#fff">
                <use xlink:href="#a"/>
            </mask>
            <path fill="url(#b)" d="M57.333.787C26.151.787.874 26.065.874 57.247c0 31.18 25.277 56.457 56.46 56.457 31.18 0 56.457-25.277 56.457-56.458 0-31.18-25.278-56.459-56.458-56.459z" mask="url(#c)"/>
        </g>
        <g>
            <g transform="translate(0 8.61)">
                <mask id="e" fill="#fff">
                    <use xlink:href="#d"/>
                </mask>
                <path fill="#1B1B80" d="M0 59.971V10.46h12.646v24.756h2.96V.504h10.763v19.912h4.036v3.767h4.036v6.055h5.38V12.075h10.495V36.83h9.686V26.067h4.843V36.56h6.458v4.575h2.96v4.305h3.767V22.569h7.264v38.748z" mask="url(#e)"/>
            </g>
            <path fill="#FE7E40" d="M91.362 28.254s2.886-2.92 2.886-7.567c0-3.452-2.468-9.458-6.674-10.779-5.516-1.733-9.238-2.052-14.37 3.593-5.132 5.646-3.593 12.319-3.593 12.319s4.975-.112 7.107-.826c2.131-.713 7.264 1.34 7.264 1.34l3.08 1.026 4.3.894z"/>
            <path fill="#FCAE8B" d="M97.438 36.572s-4.673-3.618-5.185-5.158c-.514-1.54-1.027-3.593-1.027-5.133s1.027-4.106-.513-5.132c-1.54-1.027-2.567 0-2.567 0s-1.026.512-1.026 1.54c0 1.026 0 2.565-.513 3.08-.514.512-.514-.515-1.54-1.027-1.026-.514-2.707-2.999-3.22-3.512-.513-.513-.21 3.498-1.749 3.498-1.54 0-7.863 1.04-7.863 1.04l1.54 4.62c.514 1.54 1.027 4.619 1.027 5.646 0 1.026 0 1.026 1.026 1.026h1.026l1.593 2.39c.288.43.772.688 1.29.685l1.433-.008s4.225-1.292 5.251-1.003c1.027.29 1.725 10.254 3.265 8.201 1.444-1.924 5.7-5.62 7.752-10.753"/>
            <path fill="#F6F6F6" d="M72.878 56.076l5.82 3.064c.544.285 1.214.06 1.476-.495l8.13-17.28 7.534-6.098s5.74 4.306 7.893 8.611c2.153 4.305 10.404 35.16 10.404 35.16H93.507l-5.561-7.535-17.939-2.152 2.87-13.275z"/>
            <path fill="#CDCED4" d="M89.419 46.985s-.19-7.355 4.21-7.469c4.399-.114 5.25 4.36 5.322 7.223.057 2.213 2.78 14.27 4.015 19.633.338 1.47-.602 2.938-2.185 3.423L83.542 75.07l-2.54-13.128 8.03 1.07c.633.006 1.146-.47 1.119-1.038l-.732-14.989z"/>
            <path stroke="#CDCED4" d="M89.419 46.985s-.19-7.355 4.21-7.469c4.399-.114 5.25 4.36 5.322 7.223.057 2.213 2.78 14.27 4.015 19.633.338 1.47-.602 2.938-2.185 3.423L83.542 75.07l-2.54-13.128 8.03 1.07c.633.006 1.146-.47 1.119-1.038l-.732-14.989z"/>
            <path fill="#FCAE8B" d="M81.847 62.534s-16.817-2.96-18.162-3.094c-1.345-.135-12.377 1.614-14.395 2.152-2.018.539 5.381 1.75 6.996 1.884 1.614.134 6.188-.942 7.668-.807 1.48.134 19.074 7.734 19.074 7.734l-1.181-7.869z"/>
            <path fill="#FCAE8B" d="M72.236 56.345s-12.99-9.73-14.336-9.844c-1.346-.112-16.01.426-16.548.56-.538.135.27 1.615 3.229 1.75 2.96.134 6.592.403 6.592.403s-4.51 2.117-3.533 2.202c.977.086 3.668-.318 4.744-.587 1.076-.27 2.61-.404 4.332 0s12.678 9.542 12.678 9.542l2.842.487v-4.513z"/>
            <path fill="#F6F6F6" d="M89.973 46.107s0-8.005 4.305-8.005S99.3 42.99 99.3 46.107c0 2.41 2.357 15.603 3.429 21.469a3.231 3.231 0 0 1-2.224 3.664l-16.99 5.251-2.153-14.35 7.826 1.39a1.08 1.08 0 0 0 1.12-1.1l-.335-16.324z"/>
            <mask id="g" fill="#fff">
                <use xlink:href="#f"/>
            </mask>
            <path fill="#000" d="M93.506 81.908h20.63v-2.87h-20.63z" mask="url(#g)"/>
            <path fill="#CDCED4" d="M30.366 69.35c-.395 0-.774-.217-.963-.594L14.977 40.003a1.074 1.074 0 0 1 .479-1.443 1.074 1.074 0 0 1 1.444.479l14.427 28.753a1.076 1.076 0 0 1-.96 1.559" mask="url(#g)"/>
            <path fill="#CDCED4" d="M63.503 68.264a1.074 1.074 0 0 1-.954.608l-32.164.479a1.076 1.076 0 1 1-.032-2.152l32.164-.479a1.076 1.076 0 0 1 .986 1.544" mask="url(#g)"/>
            <path fill="#FCAE8B" d="M46.45 127.473l-1.196 7.176s2.527 5.381 5.576 1.794c-.478 3.645.168-2.442 1.778-8.97h-6.157z" mask="url(#g)"/>
            <path fill="#000" d="M45.45 133.752s-11.481 4.484-13.274 4.664c-1.794.18-2.589.896-1.474 1.614 1.114.718 20.129.897 20.129.897s1.076-2.153 0-4.484c-3.409.538-5.382-2.69-5.382-2.69" mask="url(#g)"/>
            <path fill="#000" d="M40.051 130.063s-11.48 4.485-13.274 4.664c-1.794.18-2.588.897-1.474 1.615 1.115.717 20.13.897 20.13.897s1.076-2.153 0-4.486c-3.41.539-5.382-2.69-5.382-2.69" mask="url(#g)"/>
            <path fill="#FCAE8B" d="M42.285 126.935l-2.234 3.127s1.81 3.846 5.382 2.691c.7-2.41 2.116-5.284 2.116-5.284l-5.264-.534z" mask="url(#g)"/>
            <path stroke="#F17D16" stroke-width="3" d="M83.027 70.403H.23" mask="url(#g)"/>
            <path stroke="#000" d="M74.672 71.863l9.418 69.064M74.672 71.863l-8.687 69.064" mask="url(#g)"/>
            <path fill="#CDCED4" d="M93.506 81.908l-29.546 3.23a8.611 8.611 0 0 0-8.284 6.261l-10.064 38.226 7.344.73s9.924-23.904 10.329-31.246c1.214-1.476 1.214-1.476 2.171-1.409l37.1-.365s15.234.779 11.58-15.427h-20.63z" mask="url(#g)"/>
            <path fill="#CDCED4" d="M55.724 91.8l-13.906 35.135 5.263.535 5.519-13.7z" mask="url(#g)"/>
            <path fill="#000" d="M112.296 92.576l8.25-38.389s2.153-3.767 3.409 0c1.256 3.767-3.587 36.774-3.587 36.774s-.36 9.509-12.737 9.509h-28.47s-1.62-.718-1.62-1.615.779-1.614 1.981-1.614 26.316-1.077 26.316-1.077 5.554.614 6.458-3.588" mask="url(#g)"/>
            <path stroke="#000" d="M111.444 98.95l13.992 40.9M77.756 139.85l13.991-40.9" mask="url(#g)"/>
            <path fill="#FE7E40" d="M93.506 16.546l8.532 16.308c.283.542.059 1.21-.492 1.472l-10.963 5.195.643-13.24 2.28-9.735z" mask="url(#g)"/>
            <path fill="#F6F6F6" d="M59.4 17.148c0-2.144 1.3-3.984 3.152-4.78a5.202 5.202 0 1 0 0 9.561 5.203 5.203 0 0 1-3.152-4.78M4.236 30.154H8.75V25.64H4.236zM4.236 36.406H8.75v-4.514H4.236zM4.236 42.656H8.75v-4.514H4.236zM4.236 48.908H8.75v-4.515H4.236zM17.045 23.115h3.237v-6.57h-3.237zM21.544 23.115h3.237v-6.57h-3.237zM41.188 38.552h3.237v-6.57h-3.237zM45.687 38.552h3.237v-6.57h-3.237z" mask="url(#g)"/>
        </g>
    </g>
</svg>
