<svg xmlns="http://www.w3.org/2000/svg" xmlns:xlink="http://www.w3.org/1999/xlink" width="129" height="166" viewBox="0 0 129 166">
    <defs>
        <path id="a" d="M.329.26h19.053V7H.33z"/>
        <path id="c" d="M.226.26h19.053V7H.226z"/>
        <path id="e" d="M.226.26h19.053V7H.226z"/>
        <path id="g" d="M13.403 37.547L.743 69.597s5.347 5.667 9.173 4.334c3.828-1.334 13.828-33.667 13.828-33.667l2.287-11.111S17.979 8.664 17.229 1.616L13.632.329l-.229 37.218z"/>
        <linearGradient id="h" x1="50%" x2="50%" y1="89.788%" y2=".513%">
            <stop offset="0%" stop-color="#5241F7"/>
            <stop offset="100%" stop-color="#181C72"/>
        </linearGradient>
    </defs>
    <g fill="none" fill-rule="evenodd">
        <path fill="#9FD6F0" d="M122.631 47.736c0 26.363-21.372 47.735-47.736 47.735-26.364 0-47.737-21.372-47.737-47.735C27.158 21.372 48.531 0 74.895 0s47.736 21.372 47.736 47.736"/>
        <path fill="#CDCED4" d="M128.821 140.632c-9.022-2.477-20.123-2.334-30.608-2.173-32.588.5-65.754-.898-98.212.114 21.322.826 43.049.71 64.463 1.047l32.517.511 16.26.256c3.689.058 12.474-.608 15.58.245"/>
        <path fill="#E6F5FC" d="M68.523 115.263s.123 16.374 4.392 27.058c2.2 3.49 3.346 5.132 10.26 5.132s8.646.225 10.369-4.543c1.723-4.768 6.532-21.586 5.356-26.933-11.101 1.268-14.617 1.978-30.377-.714"/>
        <path fill="#E6F5FC" d="M68.584 114.685c1.13-.346 17.808-5.324 30.26.949.014.007.012.514-.002.517-7.619 1.563-17.316 3.186-30.258-.988a2.544 2.544 0 0 1 0-.478M63.2 62.321c-1.607-2.279-3.997-3.593-6.375-5.01 4.544-2.239 8.51-1.433 10.924 2.135l1.335 3.212c.02.785.22 1.516.63 2.194.264.44.567.787 1.135.576.502-.186.463-.656.432-1.058a8.487 8.487 0 0 0-.752-2.9c-.33-.956-.852-1.803-1.46-2.604.186-.738.557.066.811-.098l2.829 2.11c.346.4.688.804 1.04 1.202 3.494 3.965 4.727 8.361 2.56 13.407-.621.98-1.41 1.77-2.508 2.207-.413-.008-.826-.012-1.124.351-1.605.152-.656-1.29-1.153-1.863-1.475-1.698-3.087-3.163-5.035-4.368-2.632-1.626-5.559-2.227-8.43-3.073l-1.785-.362c.584-.595-1.305-1.963.663-2.123l.034.02c.044.376-.056.855.479.948.441.08.563-.259.616-.619.776-1.777-.412-2.69-1.648-3.433-2.18-1.31-4.556-2.21-7.066-2.898 4.248-3.819 6.577-3.783 10.068.028.914 1 1.688 2.13 2.526 3.2.47.81.843 2.3 1.91 1.702.864-.483.121-1.79-.407-2.645-.058-.095-.164-.16-.25-.238M74.9 28.482c.053.673.608.988 1.013 1.403 2.074 2.126 2.31 3.313 1.068 6.031-.761 1.665-1.65 3.274-2.39 4.947-.206.47-.803 1.205-.106 1.582.728.394 1.143-.382 1.464-.938 1.162-2.015 1.91-4.195 2.51-6.434.148-.55.119-1.4.676-1.514.759-.155.94.785 1.264 1.285.667 1.03 1.187 2.156 1.767 3.243.047.458.089.918.139 1.376.298 2.714.408 5.397-1.283 7.783-.92.618-1.693 1.442-2.928 1.544-1.75.147-2.067 1.316-1.708 2.8.235.967.796 1.868.543 2.925-.385-.714-1.118-1.052-1.692-1.562l-.456-.234.013.022c-.521-1.854-1.401-3.512-2.517-5.09-1.043-1.473-2.154-2.929-2.772-4.666.31-2.264-1.333-4.147-1.26-6.374.009-.247-.234-.7-.53-.615-1.167.34-1.381-.904-2.145-1.204 1.654-.818 2.025-2.38 2.167-3.98.184-2.06.056-4.118-.704-6.326 2.506.646 4.39 2.012 6.333 3.267.477.31.838.88 1.535.73M64.872 46.245c-2.5 1.107-5.133 1.41-7.826 1.186-1.542-.128-2.663-.836-3.115-2.465-.39-1.409-.944-2.774-1.524-4.44 2.012.903 3.817 1.433 5.572 2.065 1.614.58 2.99.078 4.455-.165.578-.097 1.345-.395 1.237-1.056-.133-.812-.977-.498-1.499-.409-1.657.281-3.324.35-4.983.192-5.08-.486-6.63-3.387-4.33-8.07 1.703.965 3.305 2.13 5.178 2.758.692.232 1.667.786 2.013-.235.368-1.09-.74-1.086-1.452-1.267-.519-.13-1.043-.24-1.555-.394-3.09-.92-3.772-2.016-3.29-5.205.15-.994.475-1.982.251-3.004-.324-1.48.527-.902 1.18-.688-.038 1.204 1.026 1.622 1.682 2.317 1.69 1.788 3.506 3.463 4.78 5.603.117 1.693.824 3.272.88 5.008.02.567.06 2.023.73 2.012 1.65-.024 1.417 1.01 1.161 1.79-.528 1.606-.054 3.018.455 4.467"/>
        <path fill="#E6F5FC" d="M64.872 46.245c-.509-1.449-.983-2.86-.455-4.467.256-.78.488-1.814-1.16-1.79-.672.011-.712-1.445-.73-2.012-.057-1.736-.764-3.315-.88-5.008 1.851.98 2.8 2.756 3.913 4.398 1.285 1.895 2.627 3.748 3.945 5.62.617 1.736 1.728 3.192 2.771 4.665 1.117 1.577 1.996 3.236 2.517 5.09-1.166-.35-2.109-.114-3.066.737-1.249 1.114-2.75 1.824-4.525 1.611.067-.315.255-.732-.213-.819-.497-.09-.604.37-.704.751l-.156.023-.135-.084c-.098-.385-.484-.736-.222-1.163 1.076-1.75.491-3.054-1.274-4.129 1.04-.27 1.146-.93 1.068-1.684.687-.637 2.452-.657 1.99-1.812-.422-1.054-1.738.322-2.684.073"/>
        <path fill="#E6F5FC" d="M69.505 42.985c-1.317-1.87-2.66-3.725-3.944-5.619-1.115-1.643-2.063-3.418-3.914-4.399-1.275-2.14-3.092-3.814-4.78-5.602-.657-.695-1.72-1.113-1.684-2.317 2.677.04 5.245-.848 7.895-.98 2.713-.134 3.001.212 2.972 2.94-.018 1.551-.277 3.052-.88 4.492-.488 1.161-.552 2.294.4 3.292.763.3.978 1.543 2.145 1.204.296-.086.538.368.53.615-.073 2.227 1.57 4.11 1.26 6.374M56.938 66.256c-1.97.16-.08 1.528-.664 2.122-2.391-.003-4.752-.601-7.155-.352l-8.673.005c.448-.924 1.194-1.614 1.879-2.344 4.086-4.362 8.092-4.651 12.675-.781.623.527 1.538.566 1.938 1.35"/>
        <path fill="#E6F5FC" d="M54.358 76.623l.308-.406c-.13-.088-.262-.249-.385-.24-.115.005-.22.192-.328.298l.405.348m-5.24-8.598c2.404-.248 4.765.35 7.156.353l1.786.362c.045.891-.207 1.774.875 2.433.68.414.92 1.4.199 2.212-1.733 1.93-3.526 3.785-6.051 4.695-.483-1.386.343-2.883-.362-4.249.499-.727 1.77-1.373 1.128-2.28-.643-.913-1.68.023-2.524.302-.493.163-.993.3-1.49.45-.265-.35-.53-.7-.793-1.05 1.65-1.037-.213-2.158.077-3.228M64.048 76.94c-.48 1.227-1.385 2.197-2.019 3.324-2.495 4.433-5.814 3.53-9.24 2.05-.269-.117-.516-.285-.774-.43l.185-.637c3.25-1.865 6.584-3.627 8.432-7.144.514.07 1.077.315.858.858-.35.873.486 1.275.555 1.952.031.307.253.58.566.597.384.02.412-.322.455-.623.045-.313-.087-.835.42-.765.22.03.376.53.562.818"/>
        <path fill="#E6F5FC" d="M49.118 68.026c-.29 1.069 1.573 2.19-.077 3.228l.793 1.048c-.489.204-.966.454-1.47.608-4.705 1.428-6.58.44-8.147-4.28-.078-.237-.023-.466.228-.6 2.891 0 5.782-.002 8.673-.004M76.929 54.515c.253-1.057-.309-1.958-.543-2.925-.359-1.484-.042-2.653 1.708-2.8 1.234-.102 2.009-.925 2.928-1.544 1.509-.647 1.858.507 2.317 1.492l-2.002 7.653-.361-.034-3.244-1.56-.694.012a.43.43 0 0 1-.109-.294M65.567 47.984c.078.754-.03 1.413-1.068 1.684 1.764 1.075 2.349 2.378 1.274 4.128-.263.428.124.78.222 1.164-3.948-.92-7.153-2.955-9.866-6.68 3.414.168 6.429-.024 9.438-.296M52.72 73.831c.706 1.366-.12 2.863.362 4.25l-.088.531c-.463.265-.932.52-1.39.794-2.32 1.398-4.346.808-5.651-1.59-.31-.57-.134-.846.31-1.164a9.015 9.015 0 0 1 3.066-1.399c1.22-.304 2.336-.77 3.392-1.422"/>
        <path fill="#E6F5FC" d="M79.127 60.133l-1.356-2.983-.733-2.341.693-.012.768 2.132.976 3.161a2.733 2.733 0 0 1-.348.043M58.067 66.606c-.054.359-.175.698-.617.619-.535-.095-.435-.573-.48-.95.376.075.654.479 1.097.33M66.285 55.022c.1-.382.207-.842.704-.751.468.087.28.504.213.818-.306-.021-.61-.045-.917-.067M74.78 52.719l.457.234-.456-.234M65.775 88.475c-1.13.06-1.521-.23-.853-1.383.992-1.71 2.534-2.81 4.028-3.983 1.357-.307 2.62-1.036 4.075-.912 1.012 1.745 2.869 1.97 4.54 2.53-.278.53.217.872.322 1.308-.062.86-.551 1.53-.99 2.224-1.154 1.836-2.305 3.675-3.458 5.513-.474 0-.987-.02-1.251.455-.731 1.318-2.063 1.84-3.263 2.543-2.567-.004-4.513 1.474-6.608 2.97-.23-2.374.05-4.494.35-6.612.547-1.663.852-3.504 2.945-4.041h6.297l-.002-.86c-2.02-.863-4.076-.284-6.132.248M83.029 109.501c-.087.01-.174.02-.26.028-.22 1.21-.447 2.418-.653 3.63-.122.721.245.926.918.883.637-.04 1.019-.185.828-.946-.301-1.193-.558-2.397-.833-3.595m1.995 4.12c.103-3.235-.516-6.387-1.35-9.832-.991 3.696.42 6.712 1.35 9.831m-3.367 3.11c-3.495-.224-6.972-.57-10.364-1.497.202-.389.586-.34.929-.374 2.417-.234 4.833-.488 7.254-.68.765-.063 1.467-.059 1.416-1.103.824-3.778 1.766-7.549.725-11.445.18-.284.357-.569.536-.855l.465 1.694c.287-1.406.2-2.506-.13-3.593.71-.25.867-.876 1.016-1.507.195-.356.39-.713.587-1.069-.05 1.54-.416 3.152-.085 4.605.86 3.77 1.676 7.535 2.199 11.367.053.387-.18 1.132.557 1.071.52-.043.614-.619.664-1.12.25-2.493.293-4.982.173-7.486-.26-5.426-1.331-10.723-2.405-16.023.558-.002.742.543 1.138.777 1.666 7.775 2.882 15.591 2.15 23.584-.29.971.286 1.068 1.042 1.118 1.864.123 3.71.372 5.913 1.066-3.135 1.012-5.993.982-8.767 1.444-.358.01-.715.02-1.073.027a.41.41 0 0 0-.346.014l-1.094.01c-.834-.009-1.667-.018-2.5-.025M60.632 74.103c.031-1.347-.692-1.12-1.498-.718.722-.812.481-1.798-.199-2.212-1.082-.66-.83-1.542-.875-2.432 2.871.846 5.798 1.448 8.428 3.074 1.95 1.205 3.561 2.67 5.037 4.368.497.572-.453 2.015 1.153 1.862.045.515.09 1.03.133 1.545-.016.929-.519 1.436-1.35 1.809-1.05.47-2.035 1.083-3.048 1.635-2.216.594-4.422 1.233-7.115 1.43 1.595-1.84 3.022-3.443 4.063-5.32.694-1.251 1.315-2.536 1.206-4.01-.038-.49-.089-1.198-.733-1.275-.6-.073-.598.615-.797 1.013-.34.684-.66 1.378-.989 2.068-.186-.287-.342-.787-.562-.818-.507-.07-.375.452-.42.765-.043.3-.07.643-.455.623-.313-.016-.535-.29-.566-.597-.069-.677-.905-1.08-.555-1.952.22-.544-.344-.788-.858-.858"/>
        <path fill="#E6F5FC" d="M73.439 93.772c1.153-1.838 2.304-3.677 3.459-5.513.437-.694.927-1.364.989-2.224l2.727.23-.03-.021c.059.413.382.288.632.31.19.14.38.28.57.422.875 1.133 2.793 1.583 2.348 3.58-1.56.84-3.12 1.68-4.678 2.522-.311-.273-.622-.544-.934-.815-.38-.331-.854-.628-1.251-.196-.387.42.153.727.393 1.018.669.809 1.367 1.593 2.053 2.387-1.104.474-2.483.14-3.404 1.156-.313-.084-.625-.438-.937-.19-.325.26-.12.609.05.916.19.344.353.702.528 1.054-.156.049-.34.059-.461.153-1.026.788-3.126.122-3.123 2.3a.395.395 0 0 1-.285.1c-.73-.584-1.476-.198-2.22-.035.717-2.622 2.42-4.751 3.574-7.154"/>
        <path fill="#E6F5FC" d="M73.439 93.771c-1.154 2.404-2.857 4.533-3.573 7.155-1.322 2.362-1.615 5.11-2.826 7.513l-1.161-2.003c-.344-.976-1.148-1.646-1.682-2.494-2.177-3.456-1.87-3.397 1.607-4.768 1.029-.405 2.19-.461 3.276-.734.404-.102.78-.42.83-.857.077-.693-.653-.54-.985-.813 1.2-.703 2.532-1.225 3.263-2.543.264-.474.777-.455 1.25-.456"/>
        <path fill="#E6F5FC" d="M68.925 96.77c.332.273 1.062.12.984.812-.048.439-.425.756-.83.858-1.086.273-2.247.329-3.275.734-3.477 1.37-3.784 1.312-1.608 4.768.535.848 1.338 1.517 1.683 2.494l-2.186 2.68c-.994-2.715-1.766-5.38-2.931-7.86-1.331-2.834-1.405-5.252 1.18-7.363.269-.221.484-.51.724-.765-.299 2.119-.579 4.238-.349 6.613 2.094-1.497 4.041-2.975 6.608-2.971M72.37 100.861c-.004-2.179 2.097-1.513 3.122-2.3.121-.095.306-.105.461-.154 1.013 1.22 1.565 2.638 1.826 4.183.426 2.541-1.42 4.51-3.966 4.274-.816-.075-.542-.585-.523-1.024.048-1.128.138-2.256.125-3.382-.008-.706-.086-1.468-1.046-1.597M76.313 96.628c.92-1.017 2.3-.683 3.404-1.156l1.518 1.822c1.92.895.33-1.723 1.647-1.497.506.33-.07 1.236.62 1.573-.147.631-.303 1.256-1.014 1.506-.066-.159-.095-.349-.202-.47-.217-.244-.333-.21-.301.15.067.74.113 1.48.168 2.22l-.536.855-3.048 2.842c-.05-2.989-.456-5.638-2.256-7.845M67.04 108.439c1.21-2.403 1.504-5.151 2.825-7.513.743-.163 1.49-.55 2.22.036-.275 1.426.527 2.746.373 4.187-.122 1.134-.493 1.97-1.634 2.193-1.3.254-2.39 1.202-3.785 1.097M65.775 88.475c2.056-.532 4.112-1.111 6.132-.248 0 .286 0 .573.002.86h-6.297l.163-.612M71.3 128.104l-.155-.066c.05.024.097.048.147.074l.007-.008zM107.772 59.041c-4.02 3.557-4.167 3.593-8.985 1.09-1.044-.543-1.987-1.28-2.981-1.919-.273-.176-.527-.586-.9-.266-.321.274-.168.666-.036.992.445 1.103 1.34 1.79 2.309 2.377a18.9 18.9 0 0 0 5.27 2.2c-.443.715-1.18.743-1.832.933-.812.045-1.425-.386-2.077-.792-1.547-.966-3.221-1.608-5.07-1.707-1.398.128-2.087-.167-1.54-1.844.298-.916.928-1.77.826-2.812 1.75-2.969 4.269-5.243 6.793-7.513.973-.236 1.467-1.302 2.496-1.438l1.815 1.831c-.4.643-2.156.114-1.466 1.698.028 1.21-.076 2.434.379 3.6-.86-.207-1.714-.462-2.584-.603-.542-.088-1.32-.395-1.566.326-.264.77.545.853 1.053 1.131 2.23 1.223 4.73.944 7.109 1.232 1.245.15 1.388.5.987 1.484"/>
        <path fill="#E6F5FC" d="M99.55 49.78c-2.525 2.27-5.043 4.544-6.794 7.513-.437-.043-1.076-.307-.899-.63.65-1.199-.829-3.095 1.271-3.796.412-.138.4-.662.103-.888-.64-.489-.429-.68.117-1.059.326-.226.68-.757.047-1.17.006-1.997.114-3.985.735-5.902.347-1.072.853-2.052 1.86-2.675 1.528-.66 3.104-.288 4.88-.319-1.055 1.413-1.978 2.672-2.925 3.91-.545.712-1.024 1.464-1.214 2.335-.15.693-.252 1.57.495 1.911.884.407.677-.852 1.233-1.06-.054.858.334 1.454 1.09 1.83"/>
        <path fill="#E6F5FC" d="M99.55 49.78c-.757-.376-1.145-.972-1.09-1.83.005-.11.023-.219.052-.324l.3-.413c.662-2.115 2.036-3.73 3.64-5.18.697-.632 1.535-.94 2.463-.815 2.112.29 4.202.673 6.082 1.77-1.132.594-2.329 1.092-3.38 1.804-1.826 1.237-4.068 1.816-5.572 3.55-1.029.136-1.523 1.202-2.496 1.438"/>
        <path fill="#E6F5FC" d="M102.045 48.342c1.504-1.733 3.746-2.313 5.572-3.55 1.051-.712 2.248-1.21 3.38-1.804.782 1.724.207 3.439-.04 5.154-.076.52-.556.561-.929.692-2 .701-4.039 1.232-6.169 1.338l-1.814-1.83M102.773 55.47c-.455-1.165-.351-2.39-.38-3.6 1.998.57 3.93.312 5.927-.176.773-.19 2.316-.928 2.595.713.295 1.734-1.048 3.343-2.491 3.453-1.906.145-3.765-.298-5.651-.39M98.812 47.213l-.3.413.3-.413M93.395 49.75c.633.413.279.944-.047 1.17-.546.378-.757.57-.117 1.06.296.225.31.75-.103.887-2.1.701-.621 2.597-1.271 3.795-.177.324.462.588.899.631.102 1.041-.528 1.896-.826 2.812-.547 1.677.142 1.972 1.54 1.844-.038 1.301-.048 2.594.49 3.826.473 1.083.249 2.07-.49 2.961l-.14.077.062.063.078-.14c.303.168.354.465.393.768l.01-.03c-.127.087-.255.173-.382.261-.378.352-1.007.666-.692 1.276.317.61.95.204 1.442.16.346-.033.684-.163 1.027-.249.222.327.904.663.644.938-1.022 1.082.55 2.206-.182 3.294-.29.43.222.697.686.737l.649.636c-.248.73-1.008-.13-1.313.41.78 1.62.17 3.384.579 5.033-.501-.243-.785-.686-1.111-1.117-2.39-3.16-4.093-6.759-6.398-9.97l-2.55-3.993c.256-.59.556-1.168.753-1.778.213-.659 1.092-1.209.39-2.044-1.67-1.158-2.46-2.93-3.278-4.684-.704-2.828-.214-5.555.703-8.245l1.016-1.828c.3 1.265.01 2.338.497 3.244-.08.624.196 1.163.468 1.678.178.34.364.837.876.737.514-.1.51-.589.49-1-.018-.35-.108-.697-.166-1.045-.19-.973-.41-1.94-.565-2.918-.327-2.035.05-3.842 1.794-5.166l1.765-1.018 3.29-.954c-.928 2.105-2.031 3.848-2.398 5.881-.118.648-.286 1.282-.06 1.922.152.43.223 1.023.773 1.09.695.082.435-.729.775-1.013"/>
        <path fill="#E6F5FC" d="M93.47 68.736c.739-.892.963-1.878.49-2.96-.538-1.233-.528-2.526-.489-3.827 1.848.1 3.521.742 5.068 1.707.653.407 1.266.837 2.077.792.318 1.248 1.648 1.606 2.271 2.591.373.59.967 1.038 1.202 2-3.462-.02-6.877-.247-10.226.465-.039-.303-.09-.6-.393-.768M105.6 70.59c.73.797.855 1.885 1.339 2.8l.826 2.498c-.002.534.113 1.181-.792.655-1.866-1.082-3.927-1.582-6.025-1.958-.412-1.568.13-3.131.033-4.696 1.426-.238 2.805-.004 4.164.416l.073-.111c-.03.285.188.33.383.396"/>
        <path fill="#E6F5FC" d="M100.98 69.889c.099 1.565-.444 3.128-.032 4.695l-1.72-.048c-.243-.43-.641-.521-1.056-.374-.297.105-.131.379-.064.588l-.612.104c-.35-.023-.66.03-.782.425l-.298.612c-.464-.04-.976-.308-.686-.736.733-1.088-.84-2.212.182-3.294.26-.276-.422-.612-.644-.94.559-.226 1.107-.501 1.74-.408l.347-.157 2.019-.232c.31.026.622.045.864-.212l.743-.023"/>
        <path fill="#E6F5FC" d="M100.237 69.912c-.241.257-.552.237-.863.212.244-.244.54-.283.864-.212M93.49 69.736l.383-.263-.383.263M97.355 70.356l-.347.157.347-.157M72.81 79.59l-.132-1.545c.297-.362.709-.358 1.122-.351-.308.666-.598 1.407.19 1.875.807.48.853-.546 1.258-.852.557-.421 1.099-.935 1.46-1.523.36-.587.914-1.421-.398-1.707 2.166-5.045.933-9.442-2.562-13.407-.35-.397-.693-.802-1.04-1.203.707.022 1.59-.221 2.092.111 1.81 1.199 3.01.027 4.327-.855a3.09 3.09 0 0 0 .348-.042c3.226-.01 5.464 1.631 6.984 4.345.674-.346.665-.952.955-1.367.703.834-.176 1.384-.39 2.043-.196.61-.496 1.187-.751 1.779-3.937-1.051-7.401 1.511-8.321 4.934-.601 2.234-.471 4.439.013 6.639a12.36 12.36 0 0 0 1.817 4.232c.25.374.538.91 1.066.809.478-.091.383-.66.498-1.048.662-2.22 1.47-4.387 2.574-6.428.345-.637.686-1.757 1.549-1.304 1.013.531.007 1.353-.278 1.96-1.276 2.71-3.19 5.194-2.838 8.449-.658.47-.265 1.263-.565 1.842l-.571-.422-.632-.311.029.023c-.773-.996-1.976-1.138-3.048-1.539M69.083 62.657c.482-.396.964-.79 1.446-1.187.426.921.671 1.894.752 2.9.031.401.071.872-.432 1.058-.569.211-.87-.136-1.136-.577a4.385 4.385 0 0 1-.63-2.194M54.358 76.623a88.635 88.635 0 0 1-.405-.348c.108-.106.213-.293.328-.299.123-.008.256.153.385.241l-.308.406"/>
        <path fill="#E6F5FC" d="M82.353 85.134c-.351-3.255 1.562-5.739 2.838-8.449.285-.607 1.29-1.429.278-1.96-.863-.453-1.204.667-1.55 1.305-1.103 2.041-1.911 4.208-2.573 6.427-.115.388-.02.957-.498 1.048-.528.101-.816-.434-1.066-.809a12.352 12.352 0 0 1-1.817-4.232c-.484-2.2-.614-4.405-.013-6.639.92-3.423 4.384-5.985 8.32-4.934l2.55 3.991c-.555.424-.162.943.01 1.278 1.62 3.156.867 6.774 2.014 10.055.44 1.262.2 2.777 1.298 3.856-.14 1.88-.06 3.76.354 5.594.296 1.318-.375 1.157-1.12.849-1.136-.473-2.053-1.397-3.304-1.655l-1.742-1.367c-.396-.234-.581-.779-1.138-.776-1.017-1.139-2.333-2.04-2.841-3.582M81.14 93.647l-.022.246c.032-.038.085-.073.089-.114.004-.041-.042-.087-.067-.132m2.994-3.091c.237 1.917.147 3.832-.043 5.745l-.588 1.07c-.69-.337-.115-1.245-.621-1.574-1.317-.225.274 2.392-1.646 1.497.182-1.217-.64-2.107-1.03-3.138l.087-.147a7.368 7.368 0 0 1-.083.152c-.251-.362-.503-.723-.755-1.083l4.679-2.522M80.585 86.243l.632.311c-.25-.023-.574.102-.632-.31"/>
        <path fill="#E6F5FC" d="M92.146 86.073c-1.1-1.08-.86-2.597-1.3-3.858-1.147-3.282-.393-6.9-2.014-10.055-.172-.335-.565-.855-.01-1.278 2.305 3.212 4.008 6.811 6.398 9.971.326.431.61.873 1.11 1.116h.002l.355.36c.14.314.218.685.434.937 2.265 2.64 4.397 5.4 6.986 7.75.508.461 1.155.876 1.167 1.7-2.57-.284-5.044.526-7.568.67-3.831.22-4.254-.449-3.642-4.269.255-1.596 1.115-3.008 1.18-4.62.029-.706.013-1.576-.863-1.72-.684-.113-1.023.511-1.4 1.111-.438.703-.105 1.645-.835 2.185"/>
        <path fill="#E6F5FC" d="M105.274 92.716c-.012-.823-.66-1.238-1.167-1.699-2.59-2.351-4.721-5.111-6.986-7.75-.216-.252-.293-.623-.434-.939a59.914 59.914 0 0 1-.355-.358h-.001c-.408-1.649.2-3.414-.578-5.033.304-.54 1.064.319 1.312-.409 1.9-.067 3.786-.564 5.702-.209l-.023 5.368c-.405-.099-.813-.185-1.211-.299-.635-.184-1.274-.176-1.486.535-.23.772.397 1.019 1.015 1.163.52.122 1.044.222 1.564.347 2.444.588 3.884 1.939 4.086 3.828l.046.73c-.568 1.106-.72 2.296-.753 3.519-.013.519.272 1.268-.731 1.206M93.47 68.736l-.078.14-.063-.063z"/>
        <path fill="#E6F5FC" d="M107.456 93.962c-.465-.569-.534-1.025-1.053-1.095-.109-.014-.366.217-.35.258.166.443.44.788 1.403.837m-2.183-1.246c1.003.062.718-.688.732-1.206.033-1.223.184-2.413.753-3.519 1.87 1.05 2.59 4.267 1.39 6.151-.412.65-.67-.615-1.113.032 1.801 2.383-.365 3.733-1.52 5.376-1.27-.524-1.389-1.97-2.259-2.81-.626-.605-1.239-2.086-2.09-1.267-.867.834.67 1.371 1.223 1.916 2.031 1.998 1.95 2.761.48 5.21-1.107 1.844-2 2.33-3.899 1.096-1.425-.924-3.298-.933-4.813-1.823-.88-.516-1.136-1.076-.65-2.016.575-1.119 1.197-2.19 2.121-3.062.345-.326.707-.643 1.006-1.008.391-.48.71-1.156.282-1.625-.512-.562-1.097.012-1.536.353-1.889 1.462-2.47 3.66-3.204 6.045-2.143-2.522-3.693-5.13-4.413-8.194-.119-.506-.139-1.076.31-1.507 1.251.26 2.168 1.183 3.306 1.656.743.308 1.415.47 1.118-.849-.413-1.834-.492-3.714-.354-5.594.733-.538.4-1.48.838-2.182.376-.6.715-1.225 1.4-1.113.876.145.891 1.015.863 1.72-.065 1.613-.926 3.026-1.18 4.621-.613 3.821-.19 4.49 3.641 4.27 2.524-.145 4.998-.954 7.568-.67M106.712 87.26c-.202-1.888-1.643-3.24-4.087-3.827-.519-.125-1.044-.225-1.563-.347-.619-.144-1.246-.39-1.015-1.163.212-.711.851-.72 1.485-.535.4.114.807.2 1.211.298l4.696 2.846.26.532c.098.387.224.77.284 1.164.068.442.276 1.07.07 1.304-.423.475-.838-.361-1.34-.271M105.6 70.59c-.194-.066-.412-.111-.382-.396l.383.396M99.229 74.536l-1.121.214c-.067-.209-.233-.484.064-.588.415-.147.813-.056 1.057.374M97.495 74.854l-.78.425c.122-.395.43-.447.78-.425M81.14 93.647c.025.045.07.09.067.132-.004.04-.057.076-.09.114l.024-.246zM80.21 94.16l.083-.15-.086.145.003.005M108.44 78.488c.13 2.091.094 4.154-1.001 6.042-1.565-.948-3.131-1.896-4.695-2.845l.023-5.367c2.127.107 4.02.825 5.674 2.17"/>
        <path fill="#E6F5FC" d="M107.456 93.962c-.963-.049-1.237-.394-1.403-.837-.016-.04.241-.272.35-.258.52.07.588.526 1.053 1.095"/>
        <path fill="#5341F8" d="M85.938 88.426l4.806 70.368h6.167l1.5-59.162 8.666 59.162h6.46l-1.293-75.162z"/>
        <path fill="#D8B421" d="M10.576 57.799c-.218.524 2.025 1.968 4.587 3.034 2.562 1.068 4.816 1.508 5.034.984.22-.524-1.682-1.814-4.243-2.881-2.562-1.068-5.159-1.661-5.378-1.137"/>
        <g transform="translate(3 158.535)">
            <mask id="b" fill="#fff">
                <use xlink:href="#a"/>
            </mask>
            <path fill="#071628" d="M1.888.26S-.09 4.06.41 5.744c.5 1.686 17.75 1.186 17.75 1.186s2.75-1.5 0-2.5S9.856.26 9.856.26H1.888z" mask="url(#b)"/>
        </g>
        <g transform="translate(80 158.535)">
            <mask id="d" fill="#fff">
                <use xlink:href="#c"/>
            </mask>
            <path fill="#071628" d="M17.719.26s1.979 3.8 1.479 5.485c-.5 1.686-17.75 1.186-17.75 1.186s-2.75-1.5 0-2.5S9.751.26 9.751.26h7.968z" mask="url(#d)"/>
        </g>
        <g transform="translate(96 158.535)">
            <mask id="f" fill="#fff">
                <use xlink:href="#e"/>
            </mask>
            <path fill="#071628" d="M17.719.26s1.979 3.8 1.479 5.485c-.5 1.686-17.75 1.186-17.75 1.186s-2.75-1.5 0-2.5S9.751.26 9.751.26h7.968z" mask="url(#f)"/>
        </g>
        <path fill="#FCAE8B" d="M100.05 36.211s-1.914-4.516-2.042-5.764c-.127-1.247-.167-2.882.093-4.043.26-1.16 1.467-2.923.478-3.957-.987-1.034-1.934-.433-1.934-.433s-.862.214-1.034.988c-.173.774-.433 1.935-.907 2.235-.473.301 1.594-1.675.907-2.235-.688-.56-.9-4.229-1.2-4.703-.3-.474-8.507-1.24-9.668-1.5-1.16-.26-.876 6.014-.876 6.014l.382 3.743c.127 1.247-.006 3.656-.179 4.43-.173.774-.173.774.601.947l.774.174.798 2.07c.144.373.466.65.858.734l1.081.236s3.403-.26 4.13.13c.724.39-.43 8.023 1.077 6.735 1.413-1.208 4.246-2.277 6.66-5.8"/>
        <path fill="#5341F8" d="M95.832 28.01s2.184 1.887 2.176 2.437c-.007.55-.553-1.697.402-2.857.954-1.159 1.241-1.627 1.173-4.628-.068-3-1.433-6.274-3.75-7.843-2.32-1.568-4.093-2.523-6.685-2.455-2.59.07-4.706 1.705-6.137 2.32-1.433.613-2.115.272-2.319.067-.205-.204-2.523 2.933.41 4.57 2.931 1.636 4.364-.75 5.523-1.16 1.16-.409 3.324-.6 5.14.995 1.816 1.596 2.385 4.524 2.771 5.058.386.534.143 1.34.58-.017.437-1.358.88-2.446 1.968-2.217 1.09.23 1.885.614 1.612 2.25-.272 1.638-2.864 3.48-2.864 3.48"/>
        <path fill="#FCAE8B" d="M25.737 36.859s4.204-4.16 4.13-5.357c-.073-1.197-.288-2.747-.714-3.802-.425-1.056-1.838-2.531-1.065-3.661.772-1.13 1.759-.708 1.759-.708s.845.068 1.129.772c.283.703.476.406.969.616.494.21-.847-1.688-.284-2.324.56-.635 1.289-3.123 1.5-3.617.21-.493 6.944-.762 8-1.187 1.055-.425.87 4.512.87 4.512l.22 3.592c.074 1.197.573 3.45.856 4.154.283.704.283.704-.42.988l-.704.283-.432 2.077a1.137 1.137 0 0 1-.695.827l-.984.39s-3.253.282-3.877.763c-.624.482-4.295 7.6-5.918 6.619-1.522-.921-1.515-1.985-4.34-4.937"/>
        <path fill="#EEC721" d="M26.243 36.466s-6.833 5.166-7.667 8c-.833 2.833-3.333 25.666-3.833 32.5-.5 6.833-1.583 9.898-1.583 9.898s8.14 2 9.805 2.5c1.667.5 15-1.667 15-1.667l.111-25.898s-10.349-8.333-10.34-13.667c.007-5.333 3.007-8.166 5.84-7.166 2.834 1-7.333-4.5-7.333-4.5"/>
        <path fill="#B88705" d="M32.754 40.966l11.5 14.166s-5.5.834-7 6.667c-2.673-2.351-7.697-3.354-8.344-5.961-.647-2.608-3.656-16.206 3.844-14.872"/>
        <path fill="#EEC721" d="M18.229 46.187l-7.652 11.612s3.106-.758 5.802 2.787c.867-7.328 1.85-14.4 1.85-14.4"/>
        <path fill="#B88705" d="M18.229 46.187L14.723 58.68l1.656 1.905c.867-7.328 1.85-14.4 1.85-14.4"/>
        <path fill="#F9895D" d="M62.91 68.966s-4.922.979-5.795 3.155c-.872 2.178.908 1.684.908 1.684l-3.447 2.327s-.833 2.334 1.834 2.667c2.666.333 4.875-.736 4.875-.736l3.302-4.663-1.677-4.434z"/>
        <path fill="#FFF" d="M92.458 37.466s1.452 1.75 2.535 1.916c1.083.167 4.75-3.903 4.75-3.903l5.583 1.32 13.084 20.25-5.084 13.917 2.183 17.708H99.426l-1.417-2-.917 2.583-13.416-1s-5.003-52.458 8.782-50.791"/>
        <path fill="#FFF" d="M92.458 37.466s-8.443.333-9.912 3c-1.47 2.666-5.422 19.154-7.779 20.41-2.357 1.256-13.482 7.5-13.482 7.5s3.331 2.911 2.728 5.834c7.73-1.744 19.272-8.619 19.272-8.619s-.739-25.125 9.173-28.125"/>
        <path fill="#FCAE8B" d="M12.853 57.966l-1.768 5.047a3.005 3.005 0 0 0 .374 2.713l3.803 5.428 1.117-10.568s-1.251-2.454-3.526-2.62"/>
        <path fill="#5341F8" d="M18.229 88.151s.432 7.814 3.432 15.314 9.5 21 9.5 21l4.349 36s4.15-3 5.9-2.75 0-33.407 0-33.407l-3.445-36.61-19.736.454z"/>
        <g transform="translate(1 86.535)">
            <mask id="i" fill="#fff">
                <use xlink:href="#g"/>
            </mask>
            <path fill="url(#h)" d="M13.403 37.547L.743 69.597s5.347 5.667 9.173 4.334c3.828-1.334 13.828-33.667 13.828-33.667l2.287-11.111S17.979 8.664 17.229 1.616L13.632.329l-.229 37.218z" mask="url(#i)"/>
        </g>
        <g>
            <path fill="#071628" d="M35.51 160.466s-.912 3.333.91 3.666c1.823.334 15.49 0 15.49 0s2.166-.352.833-1.759-7.667-3.074-7.667-3.074-1.792-1.833-3.666-1.583c-1.875.25-5.9 2.75-5.9 2.75"/>
            <path fill="#5341F8" d="M44.171 18.44c-2.303-3.146-7.52-4.588-11.208-3.234-.509.187-.99.228-1.44.175-.27.172-.544.354-.828.546-2.318 1.568-3.682 4.842-3.75 7.843-.069 3 1.227 4.228 2.182 5.387.61.741.744 1.71.761 2.175.104-.714.807-2.516.807-2.516s-2.59-1.84-2.864-3.478c-.272-1.637.523-2.02 1.611-2.25 1.09-.23 1.533.858 1.97 2.216.437 1.358.194.551.58.017.385-.534.954-3.46 2.77-5.057 1.816-1.596 3.98-1.405 5.14-.995 1.15.405 2.57 2.752 5.455 1.193a12.998 12.998 0 0 0-1.186-2.022"/>
            <path fill="#EEC721" d="M33.576 40.966l11.5 14.166s-5.5.834-7 6.667c-2.674-2.351-9.046-8.45-9.693-11.059-.648-2.608-2.307-11.108 5.193-9.774"/>
            <path fill="#D8B421" d="M37.529 62.032c.659.735 2.869-.168 4.937-2.02 2.068-1.85 3.21-3.947 2.55-4.683-.657-.735-2.867.168-4.935 2.018-2.068 1.852-3.21 3.95-2.552 4.685"/>
            <path fill="#FCAE8B" d="M42.95 55.556l11.626 14.273s3.647 4.244 6.375 4.244h2.728s-.686 4.283-2.728 3.853c-2.04-.431-5.04-.431-6.708-1.931-1.667-1.5-16.5-14.333-16.5-14.333s-.085-3.88 5.207-6.106"/>
            <path fill="#F9895D" d="M58.076 71.153s-2.25 2.21-2.333 2.761c-.083.553 3.167-.864 3.167-.864"/>
            <path fill="#CDCED4" d="M98.326 87.768l.052-12.11-1.894-33.607 2.718 33.639z"/>
            <path fill="#F27D14" d="M99.76 72.275l-5.35-8.684 15-9.25 4.125 5.5 12.625 18.23-15.875 9.895z"/>
            <path fill="#FFF" d="M101.284 71.767l-4.622-7.738 12.96-8.243 3.562 4.9 10.908 16.245-13.715 8.818z"/>
            <path fill="#FCAE8B" d="M104.743 69.966s-3.167 2.666-4.333 2.5a2.51 2.51 0 0 1-.65-.191c-.638-.284-1.35.239-1.35.936v.999s1.833 3.422 3.166 3.756c1.334.333 4.5-.167 5.667-1l1.167-.834-3.667-6.166z"/>
            <path fill="#E5E6EA" d="M100.743 35.655c9.667-1.189 12.333 4.032 12.333 4.032l12.254 16.34a4.996 4.996 0 0 1 .19 5.73c-2.688 4.12-7.468 11.112-9.11 11.36l-2.334.35-6.166 4.595s-.686-7.178-5.438-8.09c3.581-1.577 7.461-4.84 7.461-4.84s-.023-1.416.727-2c.75-.583 5.083-5 5.083-5l-6.75-7.666s3.096-6.033-8.25-14.81"/>
            <path fill="#EBECF2" d="M107.095 50.445l8.648 7.687-2.208 1.709-4.125-5.5z"/>
            <path fill="#FFF" d="M99.599 35.655c9.667-1.189 12.334 4.032 12.334 4.032l12.254 16.34a4.994 4.994 0 0 1 .188 5.73c-2.686 4.12-7.466 11.112-9.11 11.36l-2.332.35-6.167 4.595s-.686-7.178-5.438-8.09c3.58-1.577 7.462-4.84 7.462-4.84s-.024-1.416.726-2c.75-.583 5.083-5 5.083-5l-6.75-7.666s3.097-6.033-8.25-14.81"/>
            <path fill="#DDB922" d="M26.243 36.466s-7.6 31.399-8.015 51.686l-5.068-1.288 5.068-40.677s1.195-4.663 8.015-9.721"/>
        </g>
    </g>
</svg>
