<svg xmlns="http://www.w3.org/2000/svg" xmlns:xlink="http://www.w3.org/1999/xlink" width="148" height="165" viewBox="0 0 148 165">
    <defs>
        <path id="a" d="M0 .852h147.865v5.124H0z"/>
        <path id="c" d="M0 165h148V0H0z"/>
    </defs>
    <g fill="none" fill-rule="evenodd">
        <path fill="#CDCED4" d="M82.132 158H26.868C18.656 158 12 151.345 12 143.134V14.866C12 6.656 18.656 0 26.868 0h55.264C90.344 0 97 6.655 97 14.866v128.268C97 151.344 90.344 158 82.132 158"/>
        <g transform="translate(0 156)">
            <mask id="b" fill="#fff">
                <use xlink:href="#a"/>
            </mask>
            <path fill="#CDCED4" d="M147.866 5.976c-10.58-5.973-23.29-5.371-35.294-4.74C75.262 3.199 37.111.445 0 3.683c24.521 1.586 49.417.82 73.996 1.189 12.442.185 24.883.372 37.323.558l18.663.277c4.235.064 14.241-1.788 17.885.269" mask="url(#b)"/>
        </g>
        <path fill="#F4F8FB" d="M83.132 158H27.868C19.656 158 13 151.345 13 143.134V14.866C13 6.656 19.656 0 27.868 0h55.264C91.344 0 98 6.655 98 14.866v128.268C98 151.344 91.344 158 83.132 158"/>
        <mask id="d" fill="#fff">
            <use xlink:href="#c"/>
        </mask>
        <path fill="#9FD6F0" d="M20 129h71V20H20z" mask="url(#d)"/>
        <path stroke="#CDCED4" d="M63 143.5a7.5 7.5 0 1 1-15.001 0 7.5 7.5 0 0 1 15.001 0z" mask="url(#d)"/>
        <path fill="#CDCED4" d="M20 20v109h71l-69.703-1.223z" mask="url(#d)"/>
        <path fill="#E8E9EE" d="M79.937 56H48.064C45.82 56 44 54.209 44 52s1.82-4 4.064-4h31.873C82.182 48 84 49.791 84 52s-1.818 4-4.063 4" mask="url(#d)"/>
        <path fill="#FFF" d="M71.243 85H33.757A5.758 5.758 0 0 1 28 79.242v-4.484A5.758 5.758 0 0 1 33.757 69h37.486A5.757 5.757 0 0 1 77 74.758v4.484A5.757 5.757 0 0 1 71.243 85" mask="url(#d)"/>
        <path fill="#E8E9EE" d="M86.642 38H58.789c-.987 0-1.789.78-1.789 1.74v4.52c0 .96.802 1.74 1.789 1.74H83.12c.99 0 1.79-.78 1.79-1.74v-3.738l1.984-1.928c.225-.219.065-.594-.253-.594M79.964 97H54.036C51.806 97 50 95.209 50 93s1.806-4 4.036-4H84v4c0 2.209-1.806 4-4.036 4" mask="url(#d)"/>
        <path fill="#E3FFC8" d="M85.115 89h1.562c.287 0 .431.424.228.672L85 92l.115-3z" mask="url(#d)"/>
        <path fill="#FFF" d="M67.224 60H27.356c-.317 0-.476.375-.25.594l1.707 1.673v3.994c0 .96.794 1.739 1.775 1.739h36.636c.98 0 1.776-.78 1.776-1.74v-4.52c0-.96-.795-1.74-1.776-1.74M47.217 101h-19.86c-.318 0-.477.374-.251.593l1.714 1.673v3.995c0 .96.798 1.739 1.782 1.739h16.615c.984 0 1.783-.78 1.783-1.74v-4.52c0-.962-.799-1.74-1.783-1.74M29.613 125h52.773c2.538 0 4.614-2.025 4.614-4.5s-2.076-4.5-4.614-4.5H29.613c-2.537 0-4.613 2.025-4.613 4.5s2.076 4.5 4.613 4.5" mask="url(#d)"/>
        <path fill="#4CBDE7" d="M20 34h71V20H20z" mask="url(#d)"/>
        <path fill="#191D72" d="M85.19 32.99c-.762.289-1.552.62-2.09 1.303-.524.666-.734 1.576-.928 2.447-.924 4.176-.687 7.202-1.612 11.377-.857 3.864-1.714 7.736-2.256 11.675-.238 1.721-.415 3.473-.222 5.201.276 2.475 2.45 4.744 3.314 7.03 1.108 2.926 5.79 8.633 6.526 11.692 2.896 12.064 1.537 26.642 5.43 38.464 1.083 3.29 5.86 10.288 6.064 4.768l2.293-62.111c.215-5.813.43-11.633.176-17.443-.18-4.082.095-14.413-2.574-17.471-2.565-2.938-11.285 1.991-14.122 3.068" mask="url(#d)"/>
        <path fill="#001436" d="M120 152.082v2.41s2.013 1.989 3.138 2.63c1.125.644 3.374 3.39 4.025 4.15.652.76 1.42 3.273 1.834 3.506.417.234 1.896.352 2.429 0 .533-.35 2.19-2.395 2.369-3.74.177-1.343.355-2.98 0-4.032-.356-1.05-2.665-3.039-2.96-4.033-.297-.993-.712-2.278-1.185-2.98-.473-.7-4.44-3.993-4.44-3.993l-5.21 6.082z" mask="url(#d)"/>
        <path fill="#5341F8" d="M127.506 79.355s1.631 8.429 1.485 11.224c-.148 2.795-4.71 24.846-5.024 27.02-.316 2.174-1.416 10.094-1.416 12.113v12.423s-9.912-15.839-10.542-16.616c-.628-.776-1.887-3.105-1.887-3.105V102.38s-.788-2.33-1.574 0-1.574 11.18-1.416 12.578c.158 1.399 2.558 7.26 2.674 7.532.119.27 15.34 23.256 15.419 23.448.08.195.747 2.447.67 2.951-.08.506-3.855 3.223-7.592 3.106-3.738-.116-4.603-.776-4.603-.776l-9.518-15.53s-9.635-12.5-9.951-14.83c-.156-2.485-2.516-12.423-2.202-16.306C92.344 100.673 92 84.22 92 84.22l7.267-1.329L107.769 78l19.737 1.355z" mask="url(#d)"/>
        <path fill="#FCAE8B" d="M98.777 27.926s4.187-3.144 2.48-10.06C98.777 15.663 98 14.25 98 13.148c0-1.1.41-2.043 1.834-1.887 1.423.158 2.026.983 2.237 2.554 0 0 .137 1.435.66.02.523-1.414 1.628-5.718 4.768-6.778 3.14-1.062 4.886-1.298 6.513-.827 1.629.472 2.908 1.593 2.85 4.186-.059 2.595 1.396 6.956-3.954 12.852-3.432 3.95-3.956 4.244-3.839 4.952.116.708 1.686 3.242 1.28 5.305-.408 2.063-1.803 4.775-4.537 2.771-2.733-2.004-7.035-8.37-7.035-8.37" mask="url(#d)"/>
        <path fill="#5341F8" d="M101.326 18.193s.395 2.055.403 2.671c.007.616-1.11-.99-2.21-2.289-1.1-1.298-2.593-2.674-2.516-6.034.078-3.362 1.651-7.03 4.323-8.787 2.673-1.758 4.716-2.827 7.703-2.75 2.986.076 5.424 1.91 7.073 2.598 1.651.687 2.437.305 2.674.075.235-.229 2.906 3.286-.473 5.12-3.379 1.833-5.03-.84-6.366-1.299-1.336-.46-3.83-.673-5.924 1.115-2.093 1.788-2.749 5.067-3.193 5.665-.445.598-.165 1.502-.668-.019-.505-1.521-1.014-2.74-2.269-2.484-1.255.258-2.172.688-1.858 2.522.315 1.834 3.3 3.896 3.3 3.896" mask="url(#d)"/>
        <path fill="#FCAE8B" d="M81 65.818s2.346-3.235 5.16-2.773c2.815.462 3.988 3.929 3.988 3.929l4.925 12.665L100 82.457 95.073 85s-3.283-.896-4.573-4.26C89.21 77.372 81 65.817 81 65.817" mask="url(#d)"/>
        <path fill="#F6F6F6" d="M99.104 28s-13.084 4.95-14.72 7.073c-1.636 2.122-3.505 22.398-3.738 24.049-1.87 1.415-1.637 3.301-1.637 3.301l1.637 4.008s1.87-2.594 5.14-2.829l1.929.935 2.393-4.786.87 11.073 3.686 9.707L104.399 86l3.467-5.66 4.165 5.66L129 79.241 125.738 57s-2.96-.708-3.58-1.65c-.624-.943-1.11-1.3-1.637-4.401-.528-3.102-1.642-15.636-2.337-17.211-2.18-4.952-3.236-5.667-3.236-5.667s-1.923 1.442-5.114 1.259c-.456-.025.845 3.306-.192 4.25-1.038.944-3.218.158-5.087-.944-1.869-1.1-5.451-4.636-5.451-4.636" mask="url(#d)"/>
        <path fill="#171F74" d="M108.437 143s-1.27 7.93-1.428 8.904c-.159.975 1.713.674 3.391.674 1.68 0 6.114 1.205 6.748 1.355.635.151 2.06 0 2.06 0l.792-2.03-3.01-.079s-2.139.603-3.367-.676c-1.228-1.28-5.186-8.148-5.186-8.148" mask="url(#d)"/>
        <path fill="#071628" d="M107.528 152s-1.953 7.121-2.364 8.927c-.41 1.807-.351 3.853 3.81 4.035 4.162.18 5.686-.3 6.388-1.145.704-.843 1.642-3.65 1.172-5.318-.468-1.666-.022-2.585.127-3.291.343-1.626 1.339-1.626 1.339-1.626L107.528 152zM120.856 21.626L116.594 20s-.886 1.553-.93 2.196c-.044.644-.404 5.187-.664 5.706 1.465.965 6.953-5.477 5.856-6.276" mask="url(#d)"/>
        <path fill="#191D72" d="M110 122.46L123 142v-7.105s-5.331-12.977-7.32-17.302C113.691 113.268 110.32 104 110.32 104L110 122.46z" mask="url(#d)"/>
        <path fill="#CDCED4" d="M92 50l-2 9.984L90.766 71s-.114-10.39-.046-11.016C90.79 59.359 92 50 92 50M108 80l.944-10.834V39L110 69.236z" mask="url(#d)"/>
        <path fill="#FCAE8B" d="M115.162 24.465s-.178.87 0 1.827c.178.956.267 2.26 1.692.695 1.424-1.566 3.295-4.35 3.295-4.35s1.069-1.217-.98-1.304c-1.154-.794-1.649-.994-1.649-.994l.849-.223s1.601-.261 2.937 0c1.335.26 1.424 1.913 1.247 3.043-.178 1.131-1.426 5.132-1.692 5.742-.267.609-.445.87.266 2.26.713 1.393 6.056 13.135 6.858 14.962.8 1.827 3.739 5.915 2.849 9.394-.89 3.479-2.493 5.394-3.562 5.48-1.069.087-4.897-1.914-5.966-6.698-1.069-4.784-1.96-16.179-2.67-19.049-.714-2.87-4.542-6.784-4.632-8.09-.088-1.304 1.158-2.695 1.158-2.695" mask="url(#d)"/>
        <path fill="#5341F8" d="M103.96 15.89c.207.818.416 1.652.377 2.497-.09 1.946-1.471 3.687-1.326 5.628.101 1.365.974 2.567 2.059 3.315 1.085.747 2.367 1.103 3.638 1.372 1.101.232 2.236.407 3.344.218 1.11-.19 3.113-.797 3.682-1.819 1.11-1.99-.083-4.655.738-6.795.265-.692.74-1.447.422-2.115-.295-.625-1.999-.723-2.658-.699-2.25.083-4.481.65-6.518 1.66-.243.12-.494.248-.763.246-.753-.007-1.118-.95-1.34-1.713-.443-1.527-1.075-3.563-2.165-4.685-.252.77.295 2.033.51 2.89" mask="url(#d)"/>
        <path fill="#191D72" d="M110 20.5s2.834-1.125 4.672 0c1.84 1.125-4.672 0-4.672 0" mask="url(#d)"/>
    </g>
</svg>
