<svg xmlns="http://www.w3.org/2000/svg" xmlns:xlink="http://www.w3.org/1999/xlink" width="184" height="133" viewBox="0 0 184 133">
    <defs>
        <path id="a" d="M.174 52.817c0 28.993 23.504 52.496 52.498 52.496 28.993 0 52.496-23.503 52.496-52.496C105.168 23.824 81.665.32 52.672.32 23.678.32.174 23.824.174 52.817"/>
        <linearGradient id="b" x1="7.964%" x2="93.576%" y1="50%" y2="50%">
            <stop offset="0%" stop-color="#F6C421"/>
            <stop offset="100%" stop-color="#ED7B11"/>
        </linearGradient>
        <path id="d" d="M1.953.154a1 1 0 0 0-1 1v2.03h9.218v-2.03a1 1 0 0 0-.999-1H1.953z"/>
        <linearGradient id="e" x1="-.006%" x2="100.011%" y1="50.006%" y2="50.006%">
            <stop offset="0%" stop-color="#F6C421"/>
            <stop offset="100%" stop-color="#ED7B11"/>
        </linearGradient>
        <path id="g" d="M.997.18H15.36v18.94H.997z"/>
    </defs>
    <g fill="none" fill-rule="evenodd">
        <g transform="translate(37 5.82)">
            <mask id="c" fill="#fff">
                <use xlink:href="#a"/>
            </mask>
            <path fill="url(#b)" d="M.174 52.817c0 28.993 23.504 52.496 52.498 52.496 28.993 0 52.496-23.503 52.496-52.496C105.168 23.824 81.665.32 52.672.32 23.678.32.174 23.824.174 52.817" mask="url(#c)"/>
        </g>
        <path fill="#F5F5F6" d="M68.53 98.939a27.718 27.718 0 0 1-1.864 6.868c11.657.58 22.326-7.834 33.989-7.387 2.71.104 5.443.69 8.113.209 2.67-.48 5.363-2.471 5.444-5.183.067-2.265-1.63-4.136-3.08-5.877a40.416 40.416 0 0 1-8.703-18.77c-.461-2.626-.684-5.37-1.944-7.72-1.26-2.35-4.908-4.191-7.476-3.47-1.353.38-3.074 8.359-4.291 9.06-1.645.95-10.553-9.33-11.228-12.865-2.866 1.012-6.154 1.95-8.71 3.594-1.415.909-2.811 1.953-3.645 3.413-.754 1.323-.982 2.875-1.157 4.389a88.467 88.467 0 0 0 .99 26.717c.332 1.727 1.977 7.786 3.562 7.022"/>
        <path fill="#5341F8" d="M83.291 46.996s-3.157-2.739-2.68-7.03c.476-4.293 1.907-10.016 6.2-10.016 4.291 0 8.583-1.907 13.352 3.338 4.768 5.246 3.337 11.445 3.337 11.445s-4.622-.104-6.603-.767c-1.98-.663-6.749 1.244-6.749 1.244l-2.86.954-3.997.832z"/>
        <path fill="#5341F8" d="M95.317 27.4c.542 2.846-1.653 5.654-4.903 6.273-3.25.619-6.323-1.187-6.865-4.033-.542-2.845 1.653-5.654 4.903-6.273 3.25-.618 6.323 1.187 6.865 4.033"/>
        <path fill="#FCAE8B" d="M77.273 53.794s4.769-2.385 5.246-3.815c.476-1.43.953-3.338.953-4.769 0-1.43-.953-3.814.477-4.769 1.43-.954 2.384 0 2.384 0s.955.477.955 1.431c0 .954 0 2.385.475 2.861.477.477.477-.476 1.431-.954.954-.476 6.2-3.814 6.676-4.292.477-.476 1.908 4.77 3.34 4.77 1.43 0 1.907.476 1.907.476l-1.432 4.292c-.476 1.431-.954 4.292-.954 5.246 0 .954 0 .954-.953.954h-.954l-1.48 2.22a1.43 1.43 0 0 1-1.198.636l-1.33-.008s-1.714 9.283-2.668 9.55c-.954.27-3.815-.953-5.246-2.86-1.34-1.789-5.722-6.2-7.63-10.969"/>
        <path fill="#F9895D" d="M86.572 48.787v2.861c0 .953-.954 2.861 1.43 4.291 2.385 1.431 5.007 2.147 5.007 2.147s-3.337-.954-4.768-1.43c-1.431-.477-2.384-1.83-2.384-3.339 0-.954.715-4.53.715-4.53"/>
        <path fill="#CDCED4" d="M75.365 70.961l.477 18.6 18.598 4.291-17.168-5.246z"/>
        <path fill="#FCAE8B" d="M94.44 93.852s4.769.953 6.676 0c1.235-.617 2.469-1.634 3.187-2.274a1.425 1.425 0 0 1 1.466-.262l6.575 2.557a.954.954 0 0 1 .417 1.46l-1.524 2.033a1.432 1.432 0 0 1-1.521.522l-3.987-1.088a.955.955 0 0 0-.626.044l-3.033 1.3s-3.338 2.384-9.537.953c.953-2.384 1.907-5.245 1.907-5.245"/>
        <path fill="#FCAE8B" d="M110.792 93.27l1.517-1.54a1.429 1.429 0 0 1 1.658-.274l.979.489-1.908 3.338-2.246-2.013z"/>
        <path fill="#CDCED4" d="M104.455 91.467s-5.246-12.875-4.77-17.167c0 7.153 3.058 18.541 3.058 18.541l1.712-1.374zM68.689 99.575c0-.478 21.936-.021 21.936-.021l-22.474 1.507.538-1.487z"/>
        <path fill="#191D72" d="M88.718 121.51s18.836-1.339 29.208-7.107c-7.272-.523-6.795-2.907-29.208 7.107M125.927 115.67l28.36 9.18s.24-6.678 4.055-7.155c-4.621-.855-3.815-1.192-10.97-.954-7.152.24-17.1-.577-21.445-1.07M120.62 99.738s3.25-.958 6.152-.67c2.9.29 4.49 2.408 4.49 2.408l-5.951-1.182-4.69-.556zM161.203 116.384s1.788 0 2.384-1.312c.596-1.31 1.073-4.41 1.073-5.84v-2.624s.954-.114 2.504-.772c1.55-.659 3.338-1.136 5.246-2.447 1.907-1.312 4.053-2.43 5.126-4.374 1.073-1.944 1.31-4.806 2.86-5.163l.634-.147a1.43 1.43 0 0 1 1.752 1.394v12.521s-5.246-3.634-7.988.896-3.696 7.767-4.292 9.13c-.596 1.361-3.457 4.937-4.65 5.772-1.192.834-3.338 4.53-3.338 5.603 0 1.073-4.172-2.98-4.172-2.98s-1.908-2.862 2.86-9.657"/>
        <path fill="#FCAE8B" d="M158.341 108.157l6.318-.477s.24 4.65-1.072 7.392c-.597 1.685-2.385 1.312-2.385 1.312s-2.359 3.697-2.734 5.126a19.794 19.794 0 0 0-.504 2.742l-3.323-1.895s.84-3.35 3.7-4.662c-.715-2.385-2.86-2.86 0-9.537"/>
        <path fill="#CDCED4" d="M170.9 116.644s2.308-7.463 4.493-8.963c2.185-1.5 1.832-1.845 4.879-1.71 2.618.117 5.728 3.379.72 11.884-1.668 2.78-4.61 3.258-5.96 5.88-1.351 2.624-4.072 5.485-4.66 6.359-.586.874-5.831 4.53-7.858-1.073 2.344-5.364.777-2.09.777-2.09s.216-1.605 2.56-3.513c2.346-1.908 4.097-4.051 5.049-6.774M110.315 99.015l11.25-16.708a1.43 1.43 0 0 1 1.157-.631l21.281-.441a.477.477 0 0 1 .39.765l-12.132 15.992a1.43 1.43 0 0 1-1.024.56l-20.445 1.657-16.352-.774 15.875-.42z"/>
        <path fill="#F4F8FB" d="M169.85 95.035h-17.833a3 3 0 0 1-3-3V81.361a3 3 0 0 1 3-3h17.834a3 3 0 0 1 3 3v10.674a3 3 0 0 1-3 3"/>
        <path fill="#FFF" d="M156.224 92.78h-4.229a1 1 0 0 1-1-1v-6.858a1 1 0 0 1 1-1h4.23a1 1 0 0 1 1 1v6.859a1 1 0 0 1-1 1"/>
        <path fill="#9FD6F0" d="M169.923 82.713h-17.927a1 1 0 0 1-1-1v-.336a1 1 0 0 1 1-1h17.927a1 1 0 0 1 1 1v.336a1 1 0 0 1-1 1"/>
        <path fill="#2859C0" d="M159.089 92.78h10.834a1 1 0 0 0 1-1v-6.858a1 1 0 0 0-1-1h-10.834a1 1 0 0 0-1 1v6.859a1 1 0 0 0 1 1"/>
        <path fill="#F4F8FB" d="M157.025 70.427h-29.28c-1.657 0-3-1.344-3-3V48.745c0-1.656 1.343-3 3-3h29.28a3 3 0 0 1 3 3v18.682a3 3 0 0 1-3 3"/>
        <path fill="#FFF" d="M156.172 67.088h-7.22a1 1 0 0 1-1-1v-9.114a3 3 0 0 1 3-3h3.22a3 3 0 0 1 3 3v9.114a1 1 0 0 1-1 1"/>
        <g transform="translate(147 53.82)">
            <mask id="f" fill="#fff">
                <use xlink:href="#d"/>
            </mask>
            <path fill="url(#e)" d="M1.953.154a1 1 0 0 0-1 1v2.03h9.218v-2.03a1 1 0 0 0-.999-1H1.953z" mask="url(#f)"/>
        </g>
        <g>
            <path fill="#9FD6F0" d="M154.106 60.532h-3.962a1 1 0 0 1-1-1v-.445a1 1 0 0 1 1-1h3.962a1 1 0 0 1 1 1v.444a1 1 0 0 1-1 1M154.106 65.73h-3.962a1 1 0 0 1-1-1v-.444a1 1 0 0 1 1-1h3.962a1 1 0 0 1 1 1v.445a1 1 0 0 1-1 1"/>
            <path fill="#4CBDE7" d="M155.893 62.711h-4.356a.802.802 0 1 1 0-1.604h4.356a.801.801 0 1 1 0 1.604"/>
            <path fill="#9FD6F0" d="M156.172 52.186h-27.497a1 1 0 0 1-1-1v-1.457a1 1 0 0 1 1-1h27.497a1 1 0 0 1 1 1v1.457a1 1 0 0 1-1 1"/>
            <path fill="#2859C0" d="M128.675 67.088h16.998a1 1 0 0 0 1-1V54.974a1 1 0 0 0-1-1h-16.998a1 1 0 0 0-1 1v11.114a1 1 0 0 0 1 1"/>
            <path fill="#F4F8FB" d="M64.74 116.184c-.403.098-.82.237-1.11.777-.29.539-.389 1.61-.103 2.325.196.49.503.674.785.827 3.822 2.058 7.68 4.13 11.51 4.45 2.058.174 4.085-.162 6.115-.42 8.104-1.03 16.312-.813 24.512-.595l-.03-2.17c-3.116-1.917-6.265-1.246-9.363-.944-5.607.547-11.305-.18-17-1.404-5.009-1.078-10.429-4.032-15.317-2.846"/>
            <path fill="#191D72" d="M84.025 30.976s.762.839 4.075 2.153l-4.434-1.76.359-.393z"/>
            <path fill="#2D1AEF" d="M66.781 105.774s-3.815 10.015 3.815 15.736c2.861 1.909 18.122 0 18.122 0s16.69-8.106 21.936-7.63c5.245.478 27.181 3.765 36.72 2.862 5.775-.547 10.967.954 10.967.954s-2.86-5.246 0-9.538c-8.107-.953-27.182-8.583-40.534-8.583H90.625s-20.029 6.676-23.844 6.199"/>
        </g>
        <g>
            <path fill="#D06114" d="M28.338 91.218s.123 16.374 4.392 27.058c2.2 3.491 3.346 5.132 10.26 5.132s8.646.225 10.37-4.543c1.723-4.768 6.531-21.586 5.355-26.933-11.1 1.268-14.617 1.978-30.377-.714"/>
            <path fill="#8E420E" d="M28.4 90.64c1.13-.346 17.807-5.324 30.26.949.014.007.012.514-.003.517-7.618 1.563-17.315 3.186-30.257-.988a2.544 2.544 0 0 1 0-.478"/>
            <path fill="#1E5D59" d="M23.016 38.277c-1.607-2.28-3.996-3.594-6.374-5.01 4.543-2.24 8.51-1.433 10.923 2.135l1.335 3.21c.02.787.22 1.518.63 2.195.265.44.567.788 1.135.577.503-.186.464-.657.433-1.058a8.533 8.533 0 0 0-.752-2.9c-.331-.956-.853-1.803-1.46-2.604.185-.738.556.065.81-.098.943.703 1.885 1.407 2.828 2.109.347.4.69.805 1.04 1.203 3.494 3.965 4.728 8.36 2.562 13.407-.622.98-1.411 1.77-2.51 2.206-.413-.008-.825-.011-1.122.352-1.605.152-.656-1.29-1.153-1.863-1.476-1.7-3.087-3.163-5.036-4.368-2.631-1.626-5.558-2.227-8.43-3.074l-1.785-.362c.584-.594-1.305-1.962.664-2.122l.032.018c.045.377-.056.856.48.95.442.079.563-.26.617-.62.775-1.776-.412-2.69-1.65-3.432-2.18-1.31-4.554-2.211-7.064-2.9 4.248-3.817 6.575-3.781 10.066.03.916 1 1.69 2.129 2.528 3.199.469.81.842 2.3 1.91 1.703.863-.484.12-1.791-.407-2.646-.06-.094-.166-.16-.25-.237M34.717 4.437c.052.673.607.988 1.012 1.403 2.073 2.126 2.31 3.313 1.068 6.032-.761 1.665-1.65 3.273-2.39 4.947-.206.469-.804 1.205-.107 1.582.729.393 1.144-.383 1.464-.94 1.163-2.014 1.912-4.194 2.51-6.432.149-.552.12-1.402.677-1.515.759-.154.94.785 1.263 1.285.668 1.03 1.187 2.157 1.768 3.243.046.458.089.918.139 1.376.298 2.714.408 5.397-1.283 7.783-.92.619-1.694 1.442-2.928 1.545-1.75.146-2.068 1.315-1.708 2.799.235.967.796 1.869.542 2.925-.384-.714-1.117-1.052-1.691-1.561l-.456-.235.012.023c-.52-1.855-1.4-3.513-2.517-5.09-1.042-1.474-2.153-2.93-2.771-4.666.31-2.266-1.333-4.148-1.26-6.374.008-.247-.234-.701-.53-.615-1.167.339-1.381-.905-2.146-1.204 1.655-.82 2.026-2.381 2.168-3.982.183-2.058.055-4.116-.704-6.324 2.505.645 4.39 2.01 6.333 3.266.477.309.838.879 1.535.729"/>
            <path fill="#208162" d="M24.689 22.2c-2.5 1.108-5.134 1.41-7.826 1.187-1.543-.13-2.665-.837-3.115-2.465-.391-1.41-.944-2.774-1.524-4.442 2.01.904 3.817 1.434 5.572 2.067 1.613.58 2.989.078 4.454-.166.578-.096 1.346-.395 1.238-1.055-.133-.813-.977-.498-1.5-.41-1.657.282-3.325.35-4.982.192-5.08-.486-6.632-3.388-4.332-8.07 1.705.966 3.306 2.13 5.18 2.758.692.233 1.666.787 2.012-.234.369-1.09-.74-1.086-1.453-1.267-.518-.131-1.041-.24-1.553-.394-3.09-.921-3.772-2.016-3.291-5.205.15-.994.475-1.982.251-3.004-.325-1.48.527-.902 1.178-.688-.035 1.204 1.028 1.622 1.685 2.317 1.688 1.788 3.506 3.462 4.78 5.603.115 1.692.822 3.272.88 5.008.018.566.058 2.022.73 2.011 1.648-.024 1.416 1.01 1.16 1.79-.529 1.607-.053 3.018.456 4.468"/>
            <path fill="#276E60" d="M24.689 22.2c-.51-1.448-.985-2.86-.456-4.466.256-.78.488-1.815-1.16-1.79-.672.01-.712-1.446-.73-2.013-.058-1.735-.765-3.315-.881-5.007 1.852.98 2.8 2.756 3.915 4.398 1.284 1.895 2.627 3.748 3.945 5.619.617 1.737 1.727 3.193 2.77 4.666 1.117 1.576 1.997 3.236 2.517 5.09-1.166-.35-2.108-.114-3.066.736-1.248 1.114-2.75 1.825-4.524 1.611.067-.314.255-.732-.213-.819-.498-.09-.605.37-.704.752l-.157.023-.134-.084c-.099-.386-.485-.736-.223-1.163 1.076-1.752.49-3.055-1.274-4.13 1.04-.27 1.146-.93 1.069-1.684.686-.636 2.451-.657 1.989-1.811-.422-1.055-1.738.322-2.683.073"/>
            <g transform="translate(14 -.18)">
                <mask id="h" fill="#fff">
                    <use xlink:href="#g"/>
                </mask>
                <path fill="#25635F" d="M15.321 19.12c-1.317-1.87-2.66-3.724-3.944-5.618-1.115-1.643-2.063-3.418-3.915-4.4-1.274-2.14-3.092-3.813-4.78-5.601C2.026 2.806.962 2.388.998 1.184c2.678.04 5.245-.848 7.896-.98 2.713-.135 3.001.213 2.971 2.94-.017 1.55-.276 3.05-.88 4.492-.487 1.16-.55 2.294.4 3.292.764.299.978 1.543 2.145 1.204.296-.086.54.368.531.615-.073 2.227 1.57 4.108 1.26 6.374" mask="url(#h)"/>
            </g>
            <path fill="#25635F" d="M16.754 42.211c-1.97.16-.08 1.528-.664 2.122-2.391-.003-4.752-.6-7.155-.352l-8.674.004c.449-.923 1.195-1.613 1.879-2.343 4.086-4.362 8.092-4.65 12.675-.78.624.526 1.539.565 1.939 1.35"/>
            <path fill="#227961" d="M14.173 52.578l.308-.406c-.128-.088-.262-.249-.384-.24-.116.005-.22.191-.33.298l.406.348M8.935 43.98c2.403-.248 4.764.35 7.155.353l1.786.362c.045.891-.207 1.774.875 2.433.68.414.92 1.4.199 2.212-1.733 1.93-3.526 3.785-6.051 4.695-.483-1.386.343-2.883-.362-4.249.499-.728 1.77-1.373 1.128-2.28-.644-.913-1.68.023-2.525.301-.492.164-.993.3-1.49.45l-.792-1.049c1.65-1.037-.213-2.158.077-3.228M23.864 52.895c-.48 1.227-1.384 2.197-2.018 3.324-2.496 4.433-5.815 3.53-9.241 2.049-.27-.116-.516-.284-.774-.43.06-.212.123-.423.185-.636 3.25-1.865 6.585-3.627 8.432-7.144.514.07 1.077.315.858.858-.35.873.486 1.275.555 1.952.03.307.253.58.566.597.384.02.412-.323.455-.623.045-.313-.087-.835.42-.765.22.03.376.53.562.818"/>
            <path fill="#208162" d="M8.935 43.98c-.29 1.07 1.573 2.19-.077 3.229l.792 1.047c-.49.205-.965.455-1.47.609-4.704 1.428-6.58.44-8.146-4.28-.08-.237-.023-.466.228-.6 2.89 0 5.782-.002 8.673-.004"/>
            <path fill="#082625" d="M36.744 30.47c.254-1.057-.308-1.958-.542-2.925-.36-1.484-.042-2.653 1.708-2.8 1.234-.102 2.008-.925 2.927-1.545 1.51-.646 1.86.508 2.318 1.493l-2.002 7.653-.36-.034-3.245-1.56-.694.012a.43.43 0 0 1-.11-.294"/>
            <path fill="#208162" d="M25.383 23.94c.078.754-.03 1.413-1.07 1.684 1.765 1.075 2.35 2.378 1.276 4.128-.263.428.124.779.222 1.164-3.95-.921-7.153-2.955-9.867-6.68 3.414.168 6.429-.024 9.439-.296M12.537 49.786c.705 1.366-.121 2.863.362 4.25-.03.177-.06.354-.088.531-.464.265-.933.52-1.39.794-2.32 1.398-4.347.808-5.652-1.59-.31-.57-.134-.846.31-1.164a8.986 8.986 0 0 1 3.066-1.399 11.792 11.792 0 0 0 3.392-1.422"/>
            <path fill="#1E5D59" d="M38.943 36.088l-1.356-2.983-.733-2.34.694-.013.768 2.132.975 3.161a2.711 2.711 0 0 1-.348.043"/>
            <path fill="#25635F" d="M17.882 42.56c-.054.36-.175.699-.617.62-.535-.095-.434-.573-.48-.95.377.075.654.479 1.097.33"/>
            <path fill="#208162" d="M26.102 30.977c.1-.382.207-.843.704-.751.468.087.28.504.213.818-.306-.021-.611-.045-.917-.067"/>
            <path fill="#276E60" d="M34.597 28.674l.456.234-.456-.234"/>
            <path fill="#1E5D59" d="M25.59 64.43c-1.13.06-1.52-.229-.852-1.383.992-1.709 2.534-2.81 4.027-3.983 1.358-.307 2.62-1.036 4.076-.912 1.01 1.745 2.869 1.97 4.54 2.53-.28.531.216.872.322 1.308-.063.86-.551 1.53-.99 2.224-1.155 1.836-2.305 3.675-3.458 5.513-.474 0-.988-.019-1.251.455-.732 1.318-2.064 1.84-3.263 2.543-2.567-.004-4.514 1.474-6.61 2.971-.228-2.375.052-4.495.352-6.613.547-1.664.852-3.504 2.945-4.041h6.296l-.002-.86c-2.02-.863-4.076-.284-6.132.248"/>
            <path fill="#082625" d="M42.844 85.456c-.086.01-.173.02-.26.028-.219 1.21-.447 2.418-.653 3.63-.122.721.245.926.918.883.637-.04 1.02-.185.828-.946-.3-1.193-.558-2.397-.833-3.595m1.996 4.12c.102-3.235-.517-6.387-1.35-9.832-.99 3.696.42 6.712 1.35 9.831m-3.368 3.11c-3.495-.224-6.972-.57-10.364-1.497.202-.389.586-.34.93-.374 2.416-.234 4.832-.488 7.253-.68.765-.063 1.468-.059 1.417-1.104.823-3.777 1.765-7.548.724-11.444.18-.284.358-.569.537-.855l.464 1.694c.287-1.406.201-2.506-.13-3.593.711-.25.867-.876 1.016-1.507l.587-1.069c-.049 1.54-.416 3.152-.085 4.605.861 3.77 1.677 7.535 2.2 11.367.052.387-.18 1.132.557 1.071.52-.043.613-.619.664-1.12.25-2.493.292-4.982.172-7.486-.26-5.426-1.33-10.723-2.405-16.023.558-.002.742.542 1.138.777 1.666 7.775 2.882 15.591 2.152 23.584-.292.97.284 1.068 1.04 1.118 1.865.123 3.712.372 5.913 1.066-3.134 1.012-5.993.982-8.767 1.444-.358.01-.715.02-1.072.027a.413.413 0 0 0-.347.014l-1.094.01c-.834-.01-1.667-.018-2.5-.026"/>
            <path fill="#276E60" d="M20.448 50.058c.031-1.347-.692-1.12-1.499-.718.723-.812.481-1.798-.198-2.212-1.083-.66-.83-1.542-.876-2.432 2.872.846 5.798 1.448 8.43 3.074 1.95 1.205 3.56 2.669 5.036 4.368.496.572-.453 2.015 1.152 1.862.045.515.09 1.03.133 1.545-.015.929-.518 1.436-1.35 1.809-1.05.469-2.035 1.083-3.047 1.635-2.216.594-4.422 1.233-7.115 1.43 1.595-1.84 3.022-3.443 4.063-5.32.693-1.251 1.315-2.536 1.205-4.01-.037-.49-.088-1.198-.732-1.275-.602-.073-.599.615-.797 1.013-.34.684-.66 1.378-.989 2.068-.186-.287-.342-.787-.563-.818-.506-.07-.374.452-.419.765-.043.3-.07.643-.455.623-.314-.016-.535-.29-.566-.597-.069-.677-.906-1.08-.555-1.952.218-.544-.345-.788-.858-.858M33.255 69.727c1.153-1.838 2.303-3.677 3.459-5.513.437-.694.926-1.364.989-2.224l2.727.23-.03-.021c.059.413.382.288.632.31.19.14.38.28.57.422.875 1.133 2.792 1.583 2.348 3.58l-4.678 2.52-.934-.813c-.38-.331-.855-.628-1.251-.196-.387.42.153.727.393 1.018.668.809 1.367 1.593 2.053 2.387-1.105.474-2.484.14-3.404 1.155-.313-.083-.625-.438-.937-.19-.325.262-.12.61.05.917.189.344.353.702.528 1.054-.156.049-.34.059-.462.153-1.025.788-3.125.122-3.123 2.3a.394.394 0 0 1-.284.1c-.73-.585-1.477-.198-2.22-.035.716-2.622 2.42-4.751 3.574-7.154"/>
            <path fill="#25635F" d="M33.255 69.727c-1.154 2.403-2.858 4.532-3.573 7.154-1.322 2.362-1.616 5.11-2.827 7.513l-1.16-2.003c-.344-.977-1.15-1.646-1.683-2.494-2.176-3.456-1.868-3.397 1.608-4.768 1.028-.405 2.19-.461 3.275-.734.405-.102.78-.42.83-.857.077-.693-.652-.54-.984-.813 1.199-.703 2.53-1.225 3.263-2.543.263-.474.777-.455 1.25-.455"/>
            <path fill="#F5F6F2" d="M28.74 72.725c.334.273 1.063.12.985.812-.048.439-.425.756-.83.858-1.085.273-2.247.329-3.275.734-3.476 1.37-3.784 1.312-1.608 4.768.535.848 1.339 1.516 1.683 2.494-.672.822-1.344 1.647-2.186 2.68-.994-2.715-1.766-5.38-2.931-7.86-1.331-2.834-1.405-5.252 1.18-7.363.269-.221.484-.51.725-.765-.3 2.119-.58 4.238-.35 6.613 2.094-1.497 4.04-2.975 6.608-2.971"/>
            <path fill="#208162" d="M32.185 76.817c-.002-2.18 2.098-1.513 3.123-2.301.122-.094.306-.104.461-.153 1.013 1.219 1.566 2.637 1.826 4.183.426 2.54-1.42 4.508-3.966 4.274-.816-.075-.542-.585-.523-1.024.048-1.128.138-2.256.125-3.382-.008-.706-.086-1.47-1.046-1.597M36.129 72.582c.92-1.016 2.3-.682 3.404-1.155l1.517 1.822c1.922.895.33-1.724 1.649-1.497.505.33-.07 1.236.62 1.573-.149.631-.305 1.256-1.016 1.506-.064-.159-.094-.349-.201-.47-.217-.244-.334-.21-.301.15.067.74.113 1.48.167 2.22-.178.286-.357.571-.536.855l-3.049 2.842c-.047-2.989-.455-5.638-2.255-7.846M26.855 84.394c1.211-2.403 1.505-5.151 2.827-7.513.742-.163 1.488-.55 2.219.036-.275 1.426.527 2.746.373 4.187-.122 1.134-.493 1.97-1.633 2.193-1.301.254-2.391 1.202-3.786 1.097"/>
            <path fill="#F5F6F2" d="M25.59 64.43c2.056-.532 4.113-1.111 6.132-.248l.002.86h-6.296l.162-.612"/>
            <path fill="#D06114" d="M31.115 104.059c-.052-.022-.103-.045-.155-.066l.148.073.007-.007"/>
            <path fill="#1E5D59" d="M67.587 34.996c-4.019 3.557-4.167 3.593-8.985 1.09-1.044-.543-1.987-1.28-2.98-1.919-.274-.176-.528-.586-.9-.266-.32.274-.169.666-.037.992.445 1.103 1.341 1.79 2.31 2.377a18.894 18.894 0 0 0 5.27 2.2c-.443.715-1.18.743-1.833.933-.812.045-1.425-.386-2.077-.793-1.547-.965-3.22-1.607-5.068-1.706-1.4.128-2.089-.167-1.542-1.844.3-.916.928-1.77.827-2.812 1.75-2.969 4.268-5.243 6.793-7.513.972-.236 1.467-1.302 2.496-1.438l1.814 1.83c-.398.644-2.156.115-1.465 1.7.028 1.21-.077 2.433.378 3.598-.86-.206-1.713-.46-2.584-.602-.542-.088-1.32-.395-1.566.326-.264.77.545.853 1.054 1.131 2.23 1.223 4.73.944 7.108 1.232 1.245.15 1.388.5.987 1.484"/>
            <path fill="#227961" d="M59.365 25.736c-2.524 2.27-5.042 4.544-6.793 7.513-.437-.043-1.077-.307-.9-.631.651-1.198-.828-3.094 1.272-3.795.412-.138.398-.662.102-.89-.639-.487-.428-.68.118-1.057.326-.226.68-.757.047-1.171.006-1.996.114-3.984.735-5.901.347-1.072.853-2.052 1.86-2.675 1.528-.661 3.104-.288 4.88-.32-1.056 1.414-1.978 2.673-2.926 3.91-.544.713-1.023 1.464-1.213 2.336-.15.693-.253 1.569.495 1.91.884.408.677-.851 1.233-1.06-.054.859.334 1.455 1.09 1.83"/>
            <path fill="#208162" d="M59.365 25.736c-.756-.376-1.144-.972-1.09-1.831.006-.11.023-.218.052-.323l.301-.413c.661-2.115 2.036-3.73 3.64-5.181.697-.631 1.535-.94 2.463-.814 2.111.288 4.202.673 6.082 1.769-1.132.595-2.329 1.093-3.38 1.805-1.826 1.237-4.068 1.816-5.572 3.55-1.029.136-1.524 1.202-2.496 1.438"/>
            <path fill="#25635F" d="M61.861 24.297c1.503-1.733 3.746-2.313 5.571-3.55 1.052-.712 2.25-1.21 3.381-1.804.782 1.723.207 3.44-.04 5.154-.077.52-.556.561-.929.692-2 .701-4.039 1.232-6.169 1.338l-1.814-1.83M62.588 31.425c-.455-1.165-.35-2.389-.378-3.599 1.996.57 3.928.311 5.924-.177.775-.189 2.317-.928 2.596.713.294 1.734-1.048 3.343-2.49 3.453-1.906.145-3.766-.298-5.652-.39"/>
            <path fill="#227961" d="M58.628 23.168l-.3.413.3-.413"/>
            <path fill="#276E60" d="M53.211 25.704c.632.414.279.945-.047 1.171-.546.378-.757.57-.118 1.058.296.227.31.751-.102.89-2.1.7-.621 2.596-1.272 3.794-.176.324.463.588.9.631.102 1.041-.528 1.896-.826 2.812-.547 1.677.141 1.972 1.541 1.844-.039 1.301-.049 2.594.489 3.826.473 1.083.249 2.07-.49 2.961l-.14.077.062.063.078-.14c.302.168.353.465.393.768l.009-.03-.381.261c-.379.352-1.008.666-.692 1.276.317.61.95.204 1.441.16.347-.033.685-.163 1.028-.249.222.327.904.663.644.938-1.023 1.082.551 2.206-.183 3.294-.289.43.222.697.686.737l.649.636c-.247.73-1.007-.13-1.312.41.779 1.62.171 3.384.579 5.033-.502-.243-.785-.686-1.111-1.117-2.39-3.16-4.093-6.759-6.398-9.97l-2.55-3.993c.255-.59.556-1.168.753-1.778.213-.659 1.091-1.209.389-2.044-1.668-1.158-2.46-2.93-3.277-4.684-.704-2.828-.214-5.555.703-8.245l1.015-1.828c.3 1.265.011 2.338.498 3.244-.079.624.196 1.163.468 1.678.178.34.364.837.875.737.515-.1.512-.589.491-1-.019-.35-.108-.697-.167-1.045-.19-.973-.408-1.94-.565-2.918-.326-2.035.052-3.842 1.795-5.166l1.765-1.018 3.29-.955c-.928 2.106-2.031 3.85-2.399 5.882-.117.648-.286 1.282-.059 1.922.152.43.223 1.023.772 1.09.695.082.436-.729.776-1.013"/>
            <path fill="#227961" d="M53.286 44.692c.739-.892.963-1.878.49-2.961-.538-1.232-.528-2.525-.49-3.826 1.849.099 3.522.74 5.07 1.706.652.407 1.265.838 2.076.793.318 1.247 1.648 1.606 2.27 2.59.375.59.968 1.039 1.204 2-3.463-.02-6.877-.247-10.227.466-.04-.303-.09-.6-.393-.768"/>
            <path fill="#208162" d="M65.416 46.545c.731.797.855 1.885 1.338 2.8l.826 2.498c0 .534.115 1.181-.791.655-1.867-1.083-3.928-1.582-6.026-1.958-.411-1.569.132-3.13.034-4.697 1.425-.237 2.805-.003 4.163.417l.075-.11c-.031.284.187.33.382.395"/>
            <path fill="#227961" d="M60.797 45.843c.097 1.566-.446 3.128-.034 4.696l-1.718-.048c-.245-.429-.642-.52-1.057-.374-.298.105-.132.38-.065.588l-.612.104c-.35-.023-.658.03-.781.425l-.3.612c-.463-.04-.974-.308-.685-.736.734-1.088-.84-2.212.183-3.294.26-.276-.422-.612-.644-.939.558-.227 1.106-.502 1.74-.409l.347-.157 2.018-.232c.312.026.623.045.865-.212l.743-.024"/>
            <path fill="#208162" d="M60.054 45.867c-.242.258-.553.238-.865.213.245-.244.54-.283.865-.212"/>
            <path fill="#227961" d="M53.307 45.69l.38-.262-.38.263"/>
            <path fill="#208162" d="M57.17 46.31c-.114.054-.23.105-.346.158l.346-.157"/>
            <path fill="#082625" d="M32.626 55.545c-.043-.515-.087-1.03-.133-1.545.298-.362.71-.359 1.123-.35-.309.665-.599 1.406.19 1.874.808.48.852-.546 1.258-.852.556-.422 1.099-.935 1.46-1.523.36-.587.913-1.42-.398-1.707 2.166-5.045.933-9.442-2.563-13.407-.35-.397-.693-.802-1.04-1.203.708.022 1.59-.22 2.092.111 1.811 1.2 3.011.027 4.328-.855.117-.007.233-.022.349-.042 3.224-.01 5.462 1.631 6.983 4.345.674-.346.666-.952.955-1.367.703.834-.176 1.384-.39 2.043-.197.61-.497 1.187-.752 1.78-3.937-1.052-7.4 1.51-8.32 4.933-.602 2.234-.471 4.44.013 6.64a12.38 12.38 0 0 0 1.816 4.231c.25.373.538.91 1.066.81.479-.092.384-.66.5-1.049.662-2.22 1.469-4.387 2.574-6.428.344-.637.684-1.757 1.547-1.304 1.014.531.008 1.353-.277 1.96-1.276 2.71-3.19 5.194-2.838 8.45-.658.47-.264 1.262-.566 1.841l-.57-.422-.632-.31.028.022c-.772-.996-1.976-1.138-3.047-1.539M28.9 38.613l1.445-1.187c.426.92.671 1.894.752 2.9.031.4.07.872-.433 1.058-.568.21-.869-.136-1.135-.577a4.375 4.375 0 0 1-.63-2.194"/>
            <path fill="#208162" d="M14.173 52.578l-.405-.348c.109-.107.213-.293.329-.299.122-.008.256.153.384.241l-.308.406"/>
            <path fill="#1E5D59" d="M42.169 61.09c-.351-3.256 1.562-5.74 2.837-8.45.286-.607 1.291-1.429.279-1.96-.863-.453-1.204.667-1.549 1.305-1.105 2.041-1.912 4.208-2.574 6.427-.116.388-.021.957-.498 1.048-.528.101-.816-.435-1.066-.809a12.352 12.352 0 0 1-1.817-4.232c-.484-2.2-.614-4.405-.014-6.639.921-3.423 4.385-5.985 8.322-4.934l2.549 3.991c-.555.424-.163.943.01 1.278 1.62 3.156.867 6.774 2.014 10.055.441 1.262.201 2.777 1.298 3.856-.139 1.88-.06 3.76.353 5.594.297 1.318-.374 1.157-1.118.85-1.138-.474-2.055-1.398-3.305-1.656l-1.743-1.367c-.396-.235-.58-.779-1.137-.776-1.017-1.139-2.333-2.04-2.841-3.582"/>
            <path fill="#227961" d="M40.956 69.602l-.022.246c.031-.038.085-.074.09-.114.003-.041-.043-.088-.068-.132m2.994-3.091c.237 1.917.147 3.832-.043 5.745l-.588 1.07c-.69-.337-.115-1.245-.62-1.574-1.319-.226.272 2.392-1.648 1.497.183-1.217-.638-2.107-1.028-3.138l.086-.147-.083.152-.755-1.084 4.68-2.521"/>
            <path fill="#E1935A" d="M40.401 62.199l.631.31c-.25-.023-.573.102-.63-.31"/>
            <path fill="#25635F" d="M51.962 62.029c-1.1-1.081-.86-2.597-1.3-3.858-1.148-3.282-.393-6.9-2.014-10.055-.173-.335-.565-.855-.01-1.278 2.306 3.212 4.008 6.81 6.398 9.97.325.432.61.874 1.11 1.117h.002c.117.12.235.24.354.359.142.315.218.686.434.938 2.266 2.64 4.398 5.4 6.986 7.75.508.46 1.156.876 1.168 1.7-2.57-.284-5.045.526-7.569.67-3.83.22-4.254-.45-3.642-4.27.256-1.595 1.117-3.007 1.181-4.62.029-.705.012-1.575-.864-1.72-.683-.112-1.023.512-1.398 1.112-.44.703-.107 1.645-.837 2.185"/>
            <path fill="#227961" d="M65.09 68.671c-.013-.823-.66-1.238-1.168-1.699-2.589-2.35-4.72-5.11-6.986-7.75-.216-.252-.293-.623-.434-.939l-.355-.358c-.409-1.649.2-3.414-.579-5.033.305-.54 1.064.32 1.312-.409 1.901-.067 3.786-.564 5.703-.209l-.025 5.368c-.404-.099-.81-.185-1.21-.3-.635-.183-1.273-.175-1.485.536-.23.772.396 1.02 1.015 1.163.52.122 1.044.222 1.563.347 2.444.588 3.885 1.94 4.086 3.828l.047.73c-.568 1.106-.72 2.296-.753 3.52-.014.518.271 1.267-.732 1.205M53.286 44.692l-.078.14-.062-.063z"/>
            <path fill="#082625" d="M67.272 69.917c-.465-.569-.534-1.025-1.053-1.095-.11-.014-.365.217-.35.258.165.443.44.788 1.403.837m-2.183-1.246c1.004.062.719-.688.733-1.206.032-1.223.183-2.413.752-3.519 1.868 1.05 2.59 4.267 1.39 6.151-.412.65-.67-.615-1.112.032 1.8 2.383-.365 3.733-1.52 5.376-1.27-.524-1.39-1.97-2.26-2.81-.626-.605-1.239-2.086-2.09-1.267-.867.834.67 1.371 1.224 1.916 2.03 1.998 1.948 2.761.478 5.21-1.106 1.844-1.998 2.33-3.898 1.096-1.425-.925-3.299-.934-4.813-1.823-.88-.516-1.136-1.076-.651-2.016.576-1.119 1.198-2.19 2.121-3.062.346-.326.708-.643 1.007-1.008.392-.48.71-1.156.281-1.625-.512-.562-1.096.012-1.535.353-1.889 1.462-2.47 3.66-3.204 6.045-2.142-2.522-3.692-5.13-4.412-8.194-.12-.506-.14-1.076.31-1.507 1.25.26 2.167 1.183 3.304 1.656.744.308 1.415.47 1.12-.849-.413-1.834-.492-3.714-.355-5.594.732-.538.4-1.48.838-2.182.377-.6.716-1.225 1.4-1.113.875.145.892 1.015.863 1.72-.065 1.613-.925 3.026-1.18 4.621-.613 3.82-.19 4.49 3.642 4.27 2.523-.145 4.998-.954 7.568-.67M66.528 63.216c-.202-1.889-1.643-3.24-4.087-3.828-.52-.125-1.043-.225-1.563-.347-.618-.144-1.245-.39-1.015-1.163.212-.71.85-.719 1.485-.536.399.115.807.201 1.21.3 1.566.947 3.13 1.895 4.696 2.845l.26.532c.099.387.225.77.285 1.164.068.442.276 1.071.069 1.304-.422.475-.837-.36-1.34-.27"/>
            <path fill="#EE975B" d="M65.416 46.545c-.194-.066-.412-.11-.382-.396l.382.396z"/>
            <path fill="#208162" d="M59.044 50.492c-.373.07-.747.143-1.12.214-.068-.21-.234-.485.063-.589.416-.146.813-.055 1.057.375"/>
            <path fill="#276E60" d="M57.311 50.809l-.78.425c.122-.395.43-.447.78-.425M40.957 69.602c.024.044.07.09.066.132-.004.04-.058.076-.089.114l.023-.246M40.026 70.115l.083-.15a6.99 6.99 0 0 0-.086.145l.003.005M56.147 57.925l.355.358-.355-.358"/>
            <path fill="#208162" d="M68.257 54.444c.13 2.09.092 4.154-1.003 6.042l-4.695-2.845.024-5.367c2.127.106 4.02.825 5.674 2.17"/>
            <path fill="#F5F6F2" d="M67.272 69.917c-.963-.049-1.238-.394-1.403-.837-.016-.04.24-.272.35-.258.52.07.589.526 1.053 1.095"/>
        </g>
    </g>
</svg>
