<svg xmlns="http://www.w3.org/2000/svg" width="321" height="241" viewBox="0 0 321 241">
    <g fill="none" fill-rule="evenodd">
        <path stroke="#C9C9C9" stroke-width=".537" d="M102.275 117.745c0-14.819 23.946-17.933 36.779-17.933"/>
        <path stroke="#B0CA67" stroke-width=".537" d="M220.88 117.745c0-14.819-23.947-17.933-36.78-17.933"/>
        <g transform="translate(134.544 67.651)">
            <path fill="#122844" d="M50.416 37.477h-.161c-.107 1.288-1.127 2.147-2.47 2.147H6.497c-1.289 0-2.363-.859-2.47-2.147-.376 0-.752.16-.967.429L.161 40.591c-.322.268-.107.805.322.805h53.1c.377 0 .591-.483.323-.752l-2.47-2.63c-.215-.376-.59-.537-1.02-.537z" opacity=".15"/>
            <path stroke="#B90B24" stroke-linejoin="round" stroke-width=".537" d="M47.785 39.57H6.497c-1.504 0-2.631-1.342-2.416-2.845l1.127-7.41h43.866l1.127 7.41c.269 1.503-.912 2.845-2.416 2.845z"/>
            <path stroke="#B90B24" stroke-linejoin="round" stroke-width=".537" d="M15.034 24.054h-2.47l-7.356 5.315h43.866l-7.302-5.315h-2.738"/>
            <ellipse cx="27.168" cy="26.577" fill="#122844" opacity=".15" rx="12.295" ry="1.235"/>
            <path fill="#FF4915" d="M39.463 24.59c0 .806-5.476 1.504-12.295 1.504s-12.296-.644-12.296-1.503c0-.86 0-10.417 12.296-10.417 12.295 0 12.295 9.611 12.295 10.417z"/>
            <path fill="#E9EBE7" d="M27.168 14.174c-2.363 0-4.242.376-5.799.913-.107 2.685 3.329 5.799 8.161 7.195 3.866 1.127 7.57.805 9.557-.537-.913-3.06-3.543-7.57-11.92-7.57z" opacity=".25"/>
            <path stroke="#B90B24" stroke-width=".537" d="M39.463 24.59c0 .806-5.476 1.504-12.295 1.504s-12.296-.644-12.296-1.503"/>
            <path stroke="#B90B24" stroke-width=".537" d="M14.872 24.59c0-.805 0-10.416 12.296-10.416 12.295 0 12.295 9.558 12.295 10.417"/>
            <path fill="#B90B24" d="M30.228 26.846c0 .107-1.288.214-2.9.214-1.61 0-2.898-.107-2.898-.214v-.752l5.744-.054c.054 0 .054.698.054.806z"/>
            <path d="M4.51 31.57h45.315v7.517H4.51z"/>
            <text fill="#B90B24" font-family="Helvetica" font-size="8.691">
                <tspan x="11.92" y="38.679">FailOver</tspan>
            </text>
            <g fill="#B90B24">
                <path fill-rule="nonzero" d="M19.866 4.242c.644 0 1.127.322 1.127 1.61h-2.416c.108-1.235.644-1.61 1.289-1.61m3.329 5.852l-.537-1.503c-1.02.375-1.665.537-2.255.537-1.235 0-1.718-.698-1.772-1.772h4.671c0-.322.054-.86.054-1.02 0-2.631-1.343-3.705-3.33-3.705-2.093 0-3.758 1.288-3.758 4.08 0 2.363 1.02 4.188 3.92 4.188 1.02 0 2.04-.322 3.007-.805M40.644 4.242c.215 0 .43.053.59.107l-2.2 3.383a6.037 6.037 0 0 1-.108-1.074c.054-1.772.752-2.416 1.718-2.416zm-.751 4.886c-.161-.054-.269-.162-.376-.323l.376.323zM42.2 6.71c0 1.88-.59 2.578-1.61 2.578-.269 0-.484-.054-.698-.161l2.201-3.49c.054.322.107.644.107 1.073zm2.416-.107c0-2.309-1.073-3.973-3.919-3.973-2.792 0-4.08 1.664-4.08 4.188 0 2.362 1.127 4.08 3.919 4.08 2.738 0 4.08-1.664 4.08-4.295z"/>
                <path d="M36.886 10.255s-.537-1.289-.59-1.289c-.108.054-.27.054-.377.108h-.053c-.215.054-.43.054-.698.054-.806 0-1.074-.376-1.074-1.29V4.028h2.309V2.47h-2.148c-.107 0-.107-.054-.107-.161V.376h-1.504c-.053.322-.107.59-.16.805-.27.806-.86 1.128-1.88 1.235V3.92H31.678c.107 0 .107.054.107.162v4.134c0 1.718.698 2.47 2.524 2.47.912.214 1.879-.108 2.577-.43M15.57 10.148V7.517h-1.557l-.268 1.503c-.054.161-.054.161-.215.161h-3.168l5.262-7.302V.483H7.57v3.33h1.665l.268-1.504c.054-.161.054-.161.215-.161h3.007L7.57 9.288v1.397h8.054v-.537h-.054zM28.08 10.255V9.45l-.697-.108c-.108 0-.162-.053-.215-.053-.054-.054-.054-.108-.054-.215V5.047s.054-.107.215-.215c.322-.268 1.127-.698 2.523-.698h.108v-.376-1.181c-.322-.054-.645-.054-.913-.054-.966 0-1.664.591-2.148 1.396h-.053l-.161-1.234h-2.739l-.16 1.234.858.269c.161.054.215.161.215.322v4.51c0 .215-.054.269-.268.322l-.698.108v1.235h4.188v-.43z"/>
            </g>
        </g>
        <path d="M3.215 132.242h154.094v27.919H3.215z"/>
        <path fill="#B0CA67" fill-rule="nonzero" d="M153.772 117.966V239.04H.752V117.966h153.02zm.537-.536H.215v122.147h154.094V117.43z"/>
        <path fill="#E0EAC2" d="M49.772 212.913v-31.678l27.49-15.839 27.436 15.839v31.678h-27.49.054z"/>
        <path fill="#B0CA67" fill-rule="nonzero" d="M77.262 165.718l27.221 15.732v31.194l-27.221.054-27.222-.054v-31.248l27.222-15.678zm0-.644l-27.759 16v32.054l27.759.053 27.758-.053v-32.054l-27.758-16z"/>
        <path fill="#E0EAC2" d="M49.772 212.913v-31.678l27.49-15.839 27.436 15.839v31.678h-27.49.054z"/>
        <path fill="#B0CA67" fill-rule="nonzero" d="M77.262 165.718l27.221 15.732v31.194l-27.221.054-27.222-.054v-31.248l27.222-15.678zm0-.644l-27.759 16v32.054l27.759.053 27.758-.053v-32.054l-27.758-16z"/>
        <path fill="#E0EAC2" stroke="#B0CA67" stroke-width=".537" d="M77.262 213.45l-.269-16.215 27.705-15.732M49.503 181.396l27.49 15.839"/>
        <g>
            <path fill="#E0EAC2" d="M60.564 181.342l16.644-9.61 16.43 9.718-16.752 9.396z"/>
            <path fill="#B0CA67" fill-rule="nonzero" d="M77.154 172.054l15.893 9.342-16.215 9.127-15.785-9.18 16.107-9.29zm.054-.645l-17.181 9.933 16.859 9.826 17.288-9.718-16.966-10.04z"/>
        </g>
        <g>
            <path fill="#E3CD4D" d="M4.241 204.41h24.322v24.322H4.241z" opacity=".4"/>
            <path fill="#E0EAC2" d="M4.51 204.678h23.785v23.785H4.51z"/>
            <path fill="#B0CA67" fill-rule="nonzero" d="M28.027 204.946v23.249H4.779v-23.249h23.248zm.537-.537H4.242v24.323h24.322v-24.323z"/>
            <path d="M4.241 213.16h24.322v15.57H4.241z"/>
            <text fill="#57710E" font-family="Helvetica" font-size="9.128" transform="translate(3.758 203.98)">
                <tspan x="6.444" y="16.089">VM</tspan>
            </text>
            <g transform="translate(20.403 220.087)">
                <circle cx="4.886" cy="5.047" r="4.886" fill="#B0CA67"/>
                <path fill="#FFF" d="M7.678 3.49l-.322-.376c-.161-.161-.376-.161-.484 0l-.268.215c-.483.43-.966.913-1.45 1.342l-.966.913-.269.268c-.322-.322-.644-.644-.912-1.02-.161-.16-.376-.16-.484 0l-.053.054c-.108.107-.215.161-.269.268-.16.161-.16.376 0 .484l1.235 1.288.322.322c.161.161.376.161.484 0l1.503-1.396c.698-.644 1.342-1.288 2.04-1.879 0-.107 0-.322-.107-.483z"/>
            </g>
            <g>
                <path fill="#E3CD4D" d="M34.309 204.41H58.63v24.322H34.309z" opacity=".4"/>
                <path fill="#E0EAC2" d="M34.578 204.678h23.785v23.785H34.578z"/>
                <path fill="#B0CA67" fill-rule="nonzero" d="M58.094 204.946v23.249H34.846v-23.249h23.248zm.537-.537H34.309v24.323H58.63v-24.323z"/>
                <path d="M34.309 213.16H58.63v15.57H34.309z"/>
                <text fill="#57710E" font-family="Helvetica" font-size="9.128" transform="translate(33.826 203.98)">
                    <tspan x="6.444" y="16.089">VM</tspan>
                </text>
                <g transform="translate(50.47 220.087)">
                    <circle cx="4.886" cy="5.047" r="4.886" fill="#B0CA67"/>
                    <path fill="#FFF" d="M7.678 3.49l-.322-.376c-.161-.161-.376-.161-.484 0l-.268.215c-.483.43-.966.913-1.45 1.342l-.966.913-.269.268c-.322-.322-.644-.644-.912-1.02-.161-.16-.376-.16-.484 0l-.053.054c-.108.107-.215.161-.269.268-.16.161-.16.376 0 .484l1.235 1.288.322.322c.161.161.376.161.484 0l1.503-1.396c.698-.644 1.342-1.288 2.04-1.879 0-.107 0-.322-.107-.483z"/>
                </g>
            </g>
            <g>
                <path fill="#E3CD4D" d="M64.376 204.41h24.322v24.322H64.376z" opacity=".4"/>
                <path fill="#E0EAC2" d="M64.645 204.678H88.43v23.785H64.645z"/>
                <path fill="#B0CA67" fill-rule="nonzero" d="M88.161 204.946v23.249H64.913v-23.249H88.16zm.537-.537H64.376v24.323h24.322v-24.323z"/>
                <path d="M64.376 213.16h24.322v15.57H64.376z"/>
                <text fill="#57710E" font-family="Helvetica" font-size="9.128" transform="translate(63.893 203.98)">
                    <tspan x="6.444" y="16.089">VM</tspan>
                </text>
                <g transform="translate(80.537 220.087)">
                    <circle cx="4.886" cy="5.047" r="4.886" fill="#B0CA67"/>
                    <path fill="#FFF" d="M7.678 3.49l-.322-.376c-.161-.161-.376-.161-.484 0l-.268.215c-.483.43-.966.913-1.45 1.342l-.966.913-.269.268c-.322-.322-.644-.644-.912-1.02-.161-.16-.376-.16-.484 0l-.053.054c-.108.107-.215.161-.269.268-.16.161-.16.376 0 .484l1.235 1.288.322.322c.161.161.376.161.484 0l1.503-1.396c.698-.644 1.342-1.288 2.04-1.879 0-.107 0-.322-.107-.483z"/>
                </g>
            </g>
            <g>
                <path fill="#E3CD4D" d="M94.443 204.41h24.322v24.322H94.443z" opacity=".4"/>
                <path fill="#E0EAC2" d="M94.712 204.678h23.785v23.785H94.712z"/>
                <path fill="#B0CA67" fill-rule="nonzero" d="M118.228 204.946v23.249H94.98v-23.249h23.248zm.537-.537H94.443v24.323h24.322v-24.323z"/>
                <path d="M94.443 213.16h24.322v15.57H94.443z"/>
                <text fill="#57710E" font-family="Helvetica" font-size="9.128" transform="translate(93.96 203.98)">
                    <tspan x="6.444" y="16.089">VM</tspan>
                </text>
                <g transform="translate(110.604 220.087)">
                    <circle cx="4.886" cy="5.047" r="4.886" fill="#B0CA67"/>
                    <path fill="#FFF" d="M7.678 3.49l-.322-.376c-.161-.161-.376-.161-.484 0l-.268.215c-.483.43-.966.913-1.45 1.342l-.966.913-.269.268c-.322-.322-.644-.644-.912-1.02-.161-.16-.376-.16-.484 0l-.053.054c-.108.107-.215.161-.269.268-.16.161-.16.376 0 .484l1.235 1.288.322.322c.161.161.376.161.484 0l1.503-1.396c.698-.644 1.342-1.288 2.04-1.879 0-.107 0-.322-.107-.483z"/>
                </g>
            </g>
            <g>
                <path fill="#E3CD4D" d="M124.51 204.41h24.322v24.322H124.51z" opacity=".4"/>
                <path fill="#E0EAC2" d="M124.779 204.678h23.785v23.785h-23.785z"/>
                <path fill="#B0CA67" fill-rule="nonzero" d="M148.295 204.946v23.249h-23.248v-23.249h23.248zm.537-.537H124.51v24.323h24.322v-24.323z"/>
                <path d="M124.51 213.16h24.322v15.57H124.51z"/>
                <text fill="#57710E" font-family="Helvetica" font-size="9.128" transform="translate(124.027 203.98)">
                    <tspan x="6.444" y="16.089">VM</tspan>
                </text>
                <g transform="translate(140.671 220.087)">
                    <circle cx="4.886" cy="5.047" r="4.886" fill="#B0CA67"/>
                    <path fill="#FFF" d="M7.678 3.49l-.322-.376c-.161-.161-.376-.161-.484 0l-.268.215c-.483.43-.966.913-1.45 1.342l-.966.913-.269.268c-.322-.322-.644-.644-.912-1.02-.161-.16-.376-.16-.484 0l-.053.054c-.108.107-.215.161-.269.268-.16.161-.16.376 0 .484l1.235 1.288.322.322c.161.161.376.161.484 0l1.503-1.396c.698-.644 1.342-1.288 2.04-1.879 0-.107 0-.322-.107-.483z"/>
                </g>
            </g>
        </g>
        <g transform="translate(67.651 160.456)">
            <circle cx="9.611" cy="9.933" r="9.557" fill="#B0CA67"/>
            <path d="M.054 6.121h19.06V19.49H.054z"/>
            <text fill="#FFF" font-family="Helvetica" font-size="10.738">
                <tspan x="6.674" y="13.517">A</tspan>
            </text>
        </g>
        <text fill="#122844" font-family="SourceSansPro-Regular, Source Sans Pro" font-size="16" transform="translate(0 117)">
            <tspan x="16.635" y="22.465">Your on premise </tspan> <tspan x="24.907" y="40.465">infrastructure</tspan>
        </text>
        <path d="M.215 131.926h154.094v27.919H.215z"/>
        <g>
            <g opacity=".1">
                <path fill="#13C4E4" d="M185.926 22.067c0 6.443-6.604 10.953-11.382 10.953h-26.792c-3.383 0-9.772-3.436-9.772-10.255 0-3.06 1.772-5.906 4.564-7.678-2.953-6.443 4.724-11.06 9.073-8.107C156.933.215 162.84-.483 167.51.805c4.403 1.235 8.483 4.35 9.772 11.33 5.1 1.234 8.752 4.939 8.644 9.932z"/>
                <path stroke="#122844" stroke-linecap="round" stroke-linejoin="round" stroke-width=".537" d="M185.926 22.067c0 6.443-6.604 10.953-11.382 10.953h-26.792c-3.383 0-9.772-3.436-9.772-10.255 0-3.06 1.772-5.906 4.564-7.678-2.953-6.443 4.724-11.06 9.073-8.107C156.933.215 162.84-.483 167.51.805c4.403 1.235 8.483 4.35 9.772 11.33 5.1 1.234 8.752 4.939 8.644 9.932z"/>
            </g>
            <g stroke-linecap="round" stroke-linejoin="round" stroke-width=".537">
                <path stroke="#122844" d="M185.926 22.067c0 6.443-6.604 10.953-11.382 10.953h-26.792c-3.383 0-9.772-3.436-9.772-10.255 0-3.06 1.772-5.906 4.564-7.678-2.953-6.443 4.724-11.06 9.073-8.107C156.933.215 162.84-.483 167.51.805c4.403 1.235 8.483 4.35 9.772 11.33 5.1 1.234 8.752 4.939 8.644 9.932z"/>
                <path stroke="#13C4E4" d="M185.926 22.067c0 6.443-6.604 10.953-11.382 10.953h-26.792c-3.383 0-9.772-3.436-9.772-10.255 0-3.06 1.772-5.906 4.564-7.678-2.953-6.443 4.724-11.06 9.073-8.107C156.933.215 162.84-.483 167.51.805c4.403 1.235 8.483 4.35 9.772 11.33 5.1 1.234 8.752 4.939 8.644 9.932z"/>
            </g>
        </g>
        <path stroke="#E3CD4D" stroke-dasharray="2.147651100158691,3.221476364135742" stroke-width="1.074" d="M80.1 117.584c0-52.564 77.209-44.671 77.209-84.564"/>
        <path stroke="#B0CA67" stroke-width="1.074" d="M243.752 117.584c0-52.564-77.208-44.671-77.208-84.564"/>
        <g>
            <path fill="#13C4E4" d="M243.262 213.497h-27.759v-32.054l27.759-16.054 27.704 16.054v32.054z" opacity=".1"/>
            <path stroke="#13C4E4" stroke-linecap="round" stroke-linejoin="round" stroke-width=".537" d="M243.262 213.497h-27.759v-32.054l27.759-16.054 27.704 16.054v32.054z"/>
            <path stroke="#13C4E4" stroke-linecap="round" stroke-linejoin="round" stroke-width=".537" d="M243.262 213.497l-.269-16.215 27.705-15.732M215.503 181.443l27.49 15.839M243.208 171.456l-17.181 9.933 16.859 9.826 17.288-9.718z"/>
            <path stroke="#13C4E4" stroke-linecap="round" stroke-linejoin="round" stroke-width=".537" d="M166.215 117.745h154.094v122.148H166.215z"/>
            <g transform="translate(233.651 161.04)">
                <circle cx="9.611" cy="9.664" r="9.557" fill="#13C4E4"/>
                <path d="M.054 5.852h19.06v13.369H.054z"/>
                <text fill="#FFF" font-family="Helvetica" font-size="10.738">
                    <tspan x="6.298" y="13.249">B</tspan>
                </text>
            </g>
            <g>
                <path fill="#E3CD4D" d="M170.241 204.725h24.322v24.322h-24.322z" opacity=".4"/>
                <path fill="#E7DCA1" d="M170.241 204.725h24.322v24.322h-24.322z"/>
                <path fill="#E3CD4D" fill-rule="nonzero" d="M194.027 205.262v23.248h-23.248v-23.248h23.248zm.537-.537h-24.322v24.322h24.322v-24.322z"/>
                <text fill="#8A5300" font-family="Helvetica" font-size="9.128" transform="translate(169.758 204.564)">
                    <tspan x="6.444" y="15.821">VM</tspan>
                </text>
                <path fill="#D9AE00" d="M191.396 221.047c-.268-.483-.752-.537-1.074 0l-4.617 8.161c-.269.483-.054 1.128.537 1.128h9.02c.59 0 .805-.591.537-1.128l-4.403-8.161z"/>
                <path fill="#FFF" d="M190.86 227.651c-.323 0-.484.161-.484.537 0 .322.16.483.483.483.322 0 .483-.16.483-.483 0-.376-.16-.537-.483-.537zM191.45 224.483c0-.644-.054-.966-.108-1.02-.053-.161-.214-.268-.43-.268 0 0-.053-.054-.053 0h-.054a.488.488 0 0 0-.43.214c-.053.054-.107.537-.107 1.128 0 1.074.162 2.63.162 2.63s.16.054.375.054l.054-.107.054.161c.215 0 .322-.107.376-.107.053-.054.214-1.611.16-2.685z"/>
                <g>
                    <path fill="#E3CD4D" d="M200.309 204.725h24.322v24.322h-24.322z" opacity=".4"/>
                    <path fill="#E7DCA1" d="M200.309 204.725h24.322v24.322h-24.322z"/>
                    <path fill="#E3CD4D" fill-rule="nonzero" d="M224.094 205.262v23.248h-23.248v-23.248h23.248zm.537-.537h-24.322v24.322h24.322v-24.322z"/>
                    <text fill="#8A5300" font-family="Helvetica" font-size="9.128" transform="translate(199.826 204.564)">
                        <tspan x="6.444" y="15.821">VM</tspan>
                    </text>
                    <g>
                        <path fill="#D9AE00" d="M221.463 221.047c-.268-.483-.752-.537-1.074 0l-4.617 8.161c-.269.483-.054 1.128.537 1.128h9.02c.59 0 .805-.591.537-1.128l-4.403-8.161z"/>
                        <path fill="#FFF" d="M220.926 227.651c-.322 0-.483.161-.483.537 0 .322.161.483.483.483.322 0 .483-.16.483-.483 0-.376-.16-.537-.483-.537zM221.517 224.483c0-.644-.054-.966-.108-1.02-.053-.161-.214-.268-.43-.268 0 0-.053-.054-.053 0h-.054a.488.488 0 0 0-.429.214c-.054.054-.107.537-.107 1.128 0 1.074.16 2.63.16 2.63s.162.054.376.054l.054-.107.054.161c.215 0 .322-.107.376-.107.053-.054.214-1.611.16-2.685z"/>
                    </g>
                </g>
                <g>
                    <path fill="#E3CD4D" d="M230.376 204.725h24.322v24.322h-24.322z" opacity=".4"/>
                    <path fill="#E7DCA1" d="M230.376 204.725h24.322v24.322h-24.322z"/>
                    <path fill="#E3CD4D" fill-rule="nonzero" d="M254.161 205.262v23.248h-23.248v-23.248h23.248zm.537-.537h-24.322v24.322h24.322v-24.322z"/>
                    <text fill="#8A5300" font-family="Helvetica" font-size="9.128" transform="translate(229.893 204.564)">
                        <tspan x="6.444" y="15.821">VM</tspan>
                    </text>
                    <g>
                        <path fill="#D9AE00" d="M251.53 221.047c-.268-.483-.751-.537-1.074 0l-4.617 8.161c-.269.483-.054 1.128.537 1.128h9.02c.59 0 .805-.591.537-1.128l-4.403-8.161z"/>
                        <path fill="#FFF" d="M250.993 227.651c-.322 0-.483.161-.483.537 0 .322.161.483.483.483.322 0 .484-.16.484-.483 0-.376-.162-.537-.484-.537zM251.584 224.483c0-.644-.054-.966-.107-1.02-.054-.161-.215-.268-.43-.268 0 0-.054-.054-.054 0h-.053a.488.488 0 0 0-.43.214c-.054.054-.107.537-.107 1.128 0 1.074.16 2.63.16 2.63s.162.054.377.054l.053-.107.054.161c.215 0 .322-.107.376-.107.054-.054.215-1.611.16-2.685z"/>
                    </g>
                </g>
                <g>
                    <path fill="#E3CD4D" d="M260.443 204.725h24.322v24.322h-24.322z" opacity=".4"/>
                    <path fill="#E7DCA1" d="M260.443 204.725h24.322v24.322h-24.322z"/>
                    <path fill="#E3CD4D" fill-rule="nonzero" d="M284.228 205.262v23.248H260.98v-23.248h23.248zm.537-.537h-24.322v24.322h24.322v-24.322z"/>
                    <text fill="#8A5300" font-family="Helvetica" font-size="9.128" transform="translate(259.96 204.564)">
                        <tspan x="6.444" y="15.821">VM</tspan>
                    </text>
                    <g>
                        <path fill="#D9AE00" d="M281.597 221.047c-.268-.483-.751-.537-1.074 0l-4.617 8.161c-.268.483-.054 1.128.537 1.128h9.02c.59 0 .805-.591.537-1.128l-4.403-8.161z"/>
                        <path fill="#FFF" d="M281.06 227.651c-.322 0-.483.161-.483.537 0 .322.161.483.483.483.323 0 .484-.16.484-.483 0-.376-.161-.537-.484-.537zM281.651 224.483c0-.644-.054-.966-.107-1.02-.054-.161-.215-.268-.43-.268 0 0-.054-.054-.054 0h-.053a.488.488 0 0 0-.43.214c-.054.054-.107.537-.107 1.128 0 1.074.16 2.63.16 2.63s.162.054.377.054l.053-.107.054.161c.215 0 .322-.107.376-.107.054-.054.215-1.611.161-2.685z"/>
                    </g>
                </g>
                <g>
                    <path fill="#E3CD4D" d="M290.51 204.725h24.322v24.322H290.51z" opacity=".4"/>
                    <path fill="#E7DCA1" d="M290.51 204.725h24.322v24.322H290.51z"/>
                    <path fill="#E3CD4D" fill-rule="nonzero" d="M314.295 205.262v23.248h-23.248v-23.248h23.248zm.537-.537H290.51v24.322h24.322v-24.322z"/>
                    <text fill="#8A5300" font-family="Helvetica" font-size="9.128" transform="translate(290.027 204.564)">
                        <tspan x="6.444" y="15.821">VM</tspan>
                    </text>
                    <g>
                        <path fill="#D9AE00" d="M311.664 221.047c-.268-.483-.751-.537-1.073 0l-4.618 8.161c-.268.483-.054 1.128.537 1.128h9.02c.59 0 .806-.591.537-1.128l-4.403-8.161z"/>
                        <path fill="#FFF" d="M311.128 227.651c-.323 0-.484.161-.484.537 0 .322.161.483.484.483.322 0 .483-.16.483-.483 0-.376-.161-.537-.483-.537zM311.718 224.483c0-.644-.054-.966-.107-1.02-.054-.161-.215-.268-.43-.268 0 0-.053-.054-.053 0h-.054a.488.488 0 0 0-.43.214c-.053.054-.107.537-.107 1.128 0 1.074.161 2.63.161 2.63s.161.054.376.054l.054-.107.053.161c.215 0 .322-.107.376-.107.054-.054.215-1.611.161-2.685z"/>
                    </g>
                </g>
            </g>
            <text fill="#122844" font-family="SourceSansPro-Regular, Source Sans Pro" font-size="16" transform="translate(166 117)">
                <tspan x="15" y="31">OVH Private Cloud</tspan>
            </text>
        </g>
    </g>
</svg>
